<svg width="337" height="774" viewBox="0 0 337 774" fill="none" xmlns="http://www.w3.org/2000/svg">
<g filter="url(#filter0_d)">
<path fill-rule="evenodd" clip-rule="evenodd" d="M215.552 70H150.363C148.951 72.3563 146.979 74.4999 144.5 76.2132C136.253 81.9142 125.527 80.6908 120.543 73.4806C119.786 72.3861 119.206 71.2165 118.794 70H48.424C52.7738 77.1291 50.8493 86.5005 43.8927 91.3094L2.1265 120.181C1.43976 120.656 0.728729 121.069 0 121.422V139.814C1.15503 137.548 2.87244 135.529 5.11081 133.981L76.7427 84.4646C83.9529 79.4805 93.8383 81.285 98.8225 88.4952C103.807 95.7054 102.002 105.591 94.7919 110.575L23.16 160.092C15.9498 165.076 6.06439 163.271 1.08023 156.061C0.675659 155.476 0.315857 154.873 0 154.257V190.688C0.293121 190.454 0.596558 190.227 0.910248 190.011L42.6765 161.139C49.8866 156.155 59.7721 157.959 64.7562 165.17C69.7404 172.38 67.9358 182.265 60.7256 187.249L18.9594 216.121C13.0459 220.209 5.3327 219.73 0 215.448V704H252V109.715L206.173 141.393C198.963 146.377 189.077 144.573 184.093 137.363C179.109 130.153 180.914 120.267 188.124 115.283L252 71.1276V70H229.435C224.725 71.8813 219.681 71.8339 215.552 70ZM18.8983 70H0V83.0638L18.8983 70ZM88.2867 148.904C83.3026 141.694 85.1071 131.808 92.3173 126.824L163.949 77.3074C171.159 72.3232 181.045 74.1278 186.029 81.338C191.013 88.5481 189.209 98.4336 181.998 103.418L110.366 152.934C103.156 157.919 93.2709 156.114 88.2867 148.904ZM149.881 214.374C144.897 207.164 146.701 197.278 153.911 192.294L225.543 142.778C232.753 137.793 242.639 139.598 247.623 146.808C252.607 154.018 250.802 163.904 243.592 168.888L171.96 218.405C164.75 223.389 154.865 221.584 149.881 214.374ZM94.4955 199.298C89.5114 192.088 91.3159 182.202 98.5261 177.218L140.292 148.347C147.502 143.363 157.388 145.167 162.372 152.377C167.356 159.588 165.552 169.473 158.341 174.457L116.575 203.329C109.365 208.313 99.4796 206.508 94.4955 199.298ZM64.3145 254.23C57.1043 259.214 55.2997 269.099 60.2839 276.309C65.268 283.519 75.1534 285.324 82.3636 280.34L124.13 251.468C131.34 246.484 133.145 236.599 128.16 229.389C123.176 222.178 113.291 220.374 106.081 225.358L64.3145 254.23ZM72.7764 214.313C77.7606 221.523 75.1154 231.989 66.8682 237.69C58.621 243.391 47.8949 242.168 42.9107 234.958C37.9266 227.748 40.5718 217.281 48.819 211.58C57.0662 205.879 67.7923 207.103 72.7764 214.313Z" fill="white"/>
</g>
<defs>
<filter id="filter0_d" x="-55" y="0" width="392" height="774" filterUnits="userSpaceOnUse" color-interpolation-filters="sRGB">
<feFlood flood-opacity="0" result="BackgroundImageFix"/>
<feColorMatrix in="SourceAlpha" type="matrix" values="0 0 0 0 0 0 0 0 0 0 0 0 0 0 0 0 0 0 127 0"/>
<feOffset dx="15"/>
<feGaussianBlur stdDeviation="35"/>
<feColorMatrix type="matrix" values="0 0 0 0 0.329412 0 0 0 0 0.760784 0 0 0 0 0.470588 0 0 0 0.13 0"/>
<feBlend mode="normal" in2="BackgroundImageFix" result="effect1_dropShadow"/>
<feBlend mode="normal" in="SourceGraphic" in2="effect1_dropShadow" result="shape"/>
</filter>
</defs>
</svg>
