<svg width="16" height="16" viewBox="0 0 16 16" fill="none" xmlns="http://www.w3.org/2000/svg">
<path fill-rule="evenodd" clip-rule="evenodd" d="M3.80343 3.80332C3.52336 4.08339 3.52336 4.53748 3.80343 4.81755L6.59252 7.60664L3.80332 10.3958C3.52325 10.6759 3.52325 11.13 3.80332 11.4101C4.0834 11.6901 4.53749 11.6901 4.81756 11.4101L7.60675 8.62088L10.396 11.4101C10.676 11.6901 11.1301 11.6901 11.4102 11.4101C11.6903 11.13 11.6903 10.6759 11.4102 10.3958L8.62099 7.60664L11.4101 4.81755C11.6902 4.53748 11.6902 4.08339 11.4101 3.80332C11.13 3.52324 10.6759 3.52324 10.3958 3.80332L7.60675 6.59241L4.81767 3.80332C4.53759 3.52325 4.0835 3.52325 3.80343 3.80332Z" fill="#54C278"/>
</svg>
