<svg width="877" height="438" viewBox="0 0 877 438" fill="none" xmlns="http://www.w3.org/2000/svg">
<g filter="url(#filter0_d)">
<rect x="425" y="79" width="228" height="90" rx="15" fill="#54C278"/>
</g>
<rect x="182" y="281" width="228" height="90" rx="15" fill="#54C278" fill-opacity="0.06"/>
<rect x="218" y="107" width="228" height="90" rx="15" fill="#54C278" fill-opacity="0.07"/>
<rect x="583" y="326" width="184" height="78" rx="15" fill="#54C278" fill-opacity="0.04"/>
<g filter="url(#filter1_d)">
<rect x="466" y="260" width="187" height="99" rx="15" fill="#54C278"/>
</g>
<g filter="url(#filter2_d)">
<rect x="79" y="222" width="309" height="75" rx="15" fill="#54C278"/>
</g>
<rect x="568" y="189" width="309" height="75" rx="15" fill="#54C278" fill-opacity="0.06"/>
<circle cx="435.5" cy="227.5" r="103" stroke="url(#paint0_linear)"/>
<path d="M480.295 125.371C480.152 126.888 479.592 128.073 478.615 128.926C477.639 129.772 476.34 130.195 474.719 130.195C473.586 130.195 472.587 129.928 471.721 129.395C470.861 128.854 470.197 128.089 469.729 127.1C469.26 126.11 469.016 124.961 468.996 123.652V122.324C468.996 120.983 469.234 119.801 469.709 118.779C470.184 117.757 470.865 116.969 471.75 116.416C472.642 115.863 473.671 115.586 474.836 115.586C476.405 115.586 477.668 116.012 478.625 116.865C479.582 117.718 480.139 118.923 480.295 120.479H477.834C477.717 119.456 477.417 118.721 476.936 118.271C476.46 117.816 475.76 117.588 474.836 117.588C473.762 117.588 472.935 117.982 472.355 118.77C471.783 119.551 471.49 120.7 471.477 122.217V123.477C471.477 125.013 471.75 126.185 472.297 126.992C472.85 127.799 473.658 128.203 474.719 128.203C475.689 128.203 476.418 127.985 476.906 127.549C477.395 127.113 477.704 126.387 477.834 125.371H480.295ZM481.838 124.619C481.838 123.584 482.043 122.653 482.453 121.826C482.863 120.993 483.439 120.355 484.182 119.912C484.924 119.463 485.777 119.238 486.74 119.238C488.166 119.238 489.322 119.697 490.207 120.615C491.099 121.533 491.581 122.751 491.652 124.268L491.662 124.824C491.662 125.866 491.46 126.797 491.057 127.617C490.66 128.438 490.087 129.072 489.338 129.521C488.596 129.971 487.736 130.195 486.76 130.195C485.269 130.195 484.074 129.701 483.176 128.711C482.284 127.715 481.838 126.39 481.838 124.736V124.619ZM484.211 124.824C484.211 125.911 484.436 126.764 484.885 127.383C485.334 127.995 485.959 128.301 486.76 128.301C487.561 128.301 488.182 127.988 488.625 127.363C489.074 126.738 489.299 125.824 489.299 124.619C489.299 123.551 489.068 122.705 488.605 122.08C488.15 121.455 487.528 121.143 486.74 121.143C485.965 121.143 485.35 121.452 484.895 122.07C484.439 122.682 484.211 123.6 484.211 124.824ZM495.9 119.434L495.969 120.537C496.711 119.671 497.727 119.238 499.016 119.238C500.428 119.238 501.395 119.779 501.916 120.859C502.684 119.779 503.765 119.238 505.158 119.238C506.324 119.238 507.189 119.561 507.756 120.205C508.329 120.85 508.622 121.8 508.635 123.057V130H506.262V123.125C506.262 122.454 506.115 121.963 505.822 121.65C505.529 121.338 505.044 121.182 504.367 121.182C503.827 121.182 503.384 121.328 503.039 121.621C502.701 121.908 502.463 122.285 502.326 122.754L502.336 130H499.963V123.047C499.93 121.803 499.296 121.182 498.059 121.182C497.108 121.182 496.434 121.569 496.037 122.344V130H493.664V119.434H495.9ZM520.324 124.824C520.324 126.458 519.953 127.764 519.211 128.74C518.469 129.71 517.473 130.195 516.223 130.195C515.064 130.195 514.136 129.814 513.439 129.053V134.062H511.066V119.434H513.254L513.352 120.508C514.048 119.661 514.995 119.238 516.193 119.238C517.482 119.238 518.492 119.72 519.221 120.684C519.956 121.641 520.324 122.972 520.324 124.678V124.824ZM517.961 124.619C517.961 123.564 517.749 122.728 517.326 122.109C516.91 121.491 516.311 121.182 515.529 121.182C514.559 121.182 513.863 121.582 513.439 122.383V127.07C513.869 127.891 514.572 128.301 515.549 128.301C516.304 128.301 516.893 127.998 517.316 127.393C517.746 126.781 517.961 125.856 517.961 124.619ZM527.873 121.602C527.561 121.549 527.238 121.523 526.906 121.523C525.819 121.523 525.087 121.94 524.709 122.773V130H522.336V119.434H524.602L524.66 120.615C525.233 119.697 526.027 119.238 527.043 119.238C527.382 119.238 527.661 119.284 527.883 119.375L527.873 121.602ZM533.83 130.195C532.326 130.195 531.105 129.723 530.168 128.779C529.237 127.829 528.771 126.566 528.771 124.99V124.697C528.771 123.643 528.973 122.702 529.377 121.875C529.787 121.042 530.36 120.394 531.096 119.932C531.831 119.469 532.652 119.238 533.557 119.238C534.995 119.238 536.105 119.697 536.887 120.615C537.674 121.533 538.068 122.832 538.068 124.512V125.469H531.164C531.236 126.341 531.525 127.031 532.033 127.539C532.548 128.047 533.192 128.301 533.967 128.301C535.054 128.301 535.939 127.861 536.623 126.982L537.902 128.203C537.479 128.835 536.913 129.326 536.203 129.678C535.5 130.023 534.709 130.195 533.83 130.195ZM533.547 121.143C532.896 121.143 532.368 121.37 531.965 121.826C531.568 122.282 531.314 122.917 531.203 123.73H535.725V123.555C535.673 122.76 535.461 122.161 535.09 121.758C534.719 121.348 534.204 121.143 533.547 121.143ZM534.084 115H536.789L534.084 117.959H532.18L534.084 115ZM542.258 120.586C543.033 119.688 544.012 119.238 545.197 119.238C547.45 119.238 548.592 120.524 548.625 123.096V130H546.252V123.184C546.252 122.454 546.092 121.94 545.773 121.641C545.461 121.335 544.999 121.182 544.387 121.182C543.436 121.182 542.727 121.605 542.258 122.451V130H539.885V115H542.258V120.586ZM555.686 130.195C554.182 130.195 552.961 129.723 552.023 128.779C551.092 127.829 550.627 126.566 550.627 124.99V124.697C550.627 123.643 550.829 122.702 551.232 121.875C551.643 121.042 552.215 120.394 552.951 119.932C553.687 119.469 554.507 119.238 555.412 119.238C556.851 119.238 557.961 119.697 558.742 120.615C559.53 121.533 559.924 122.832 559.924 124.512V125.469H553.02C553.091 126.341 553.381 127.031 553.889 127.539C554.403 128.047 555.048 128.301 555.822 128.301C556.91 128.301 557.795 127.861 558.479 126.982L559.758 128.203C559.335 128.835 558.768 129.326 558.059 129.678C557.355 130.023 556.564 130.195 555.686 130.195ZM555.402 121.143C554.751 121.143 554.224 121.37 553.82 121.826C553.423 122.282 553.169 122.917 553.059 123.73H557.58V123.555C557.528 122.76 557.316 122.161 556.945 121.758C556.574 121.348 556.06 121.143 555.402 121.143ZM563.977 119.434L564.045 120.654C564.826 119.71 565.852 119.238 567.121 119.238C569.322 119.238 570.441 120.498 570.48 123.018V130H568.107V123.154C568.107 122.484 567.961 121.989 567.668 121.67C567.382 121.344 566.91 121.182 566.252 121.182C565.295 121.182 564.582 121.615 564.113 122.48V130H561.74V119.434H563.977ZM578.83 127.129C578.83 126.706 578.654 126.383 578.303 126.162C577.958 125.941 577.382 125.745 576.574 125.576C575.767 125.407 575.093 125.192 574.553 124.932C573.368 124.359 572.775 123.529 572.775 122.441C572.775 121.53 573.16 120.768 573.928 120.156C574.696 119.544 575.673 119.238 576.857 119.238C578.12 119.238 579.139 119.551 579.914 120.176C580.695 120.801 581.086 121.611 581.086 122.607H578.713C578.713 122.152 578.544 121.774 578.205 121.475C577.867 121.169 577.417 121.016 576.857 121.016C576.337 121.016 575.91 121.136 575.578 121.377C575.253 121.618 575.09 121.94 575.09 122.344C575.09 122.708 575.243 122.992 575.549 123.193C575.855 123.395 576.473 123.6 577.404 123.809C578.335 124.01 579.064 124.255 579.592 124.541C580.126 124.821 580.52 125.16 580.773 125.557C581.034 125.954 581.164 126.436 581.164 127.002C581.164 127.952 580.77 128.724 579.982 129.316C579.195 129.902 578.163 130.195 576.887 130.195C576.021 130.195 575.249 130.039 574.572 129.727C573.895 129.414 573.368 128.984 572.99 128.438C572.613 127.891 572.424 127.301 572.424 126.67H574.729C574.761 127.23 574.973 127.663 575.363 127.969C575.754 128.268 576.271 128.418 576.916 128.418C577.541 128.418 578.016 128.301 578.342 128.066C578.667 127.826 578.83 127.513 578.83 127.129ZM585.764 130H583.391V119.434H585.764V130ZM583.244 116.689C583.244 116.325 583.358 116.022 583.586 115.781C583.82 115.54 584.152 115.42 584.582 115.42C585.012 115.42 585.344 115.54 585.578 115.781C585.812 116.022 585.93 116.325 585.93 116.689C585.93 117.048 585.812 117.347 585.578 117.588C585.344 117.822 585.012 117.939 584.582 117.939C584.152 117.939 583.82 117.822 583.586 117.588C583.358 117.347 583.244 117.048 583.244 116.689ZM587.912 124.619C587.912 123.584 588.117 122.653 588.527 121.826C588.938 120.993 589.514 120.355 590.256 119.912C590.998 119.463 591.851 119.238 592.814 119.238C594.24 119.238 595.396 119.697 596.281 120.615C597.173 121.533 597.655 122.751 597.727 124.268L597.736 124.824C597.736 125.866 597.535 126.797 597.131 127.617C596.734 128.438 596.161 129.072 595.412 129.521C594.67 129.971 593.811 130.195 592.834 130.195C591.343 130.195 590.148 129.701 589.25 128.711C588.358 127.715 587.912 126.39 587.912 124.736V124.619ZM590.285 124.824C590.285 125.911 590.51 126.764 590.959 127.383C591.408 127.995 592.033 128.301 592.834 128.301C593.635 128.301 594.257 127.988 594.699 127.363C595.148 126.738 595.373 125.824 595.373 124.619C595.373 123.551 595.142 122.705 594.68 122.08C594.224 121.455 593.602 121.143 592.814 121.143C592.04 121.143 591.424 121.452 590.969 122.07C590.513 122.682 590.285 123.6 590.285 124.824ZM601.945 119.434L602.014 120.654C602.795 119.71 603.82 119.238 605.09 119.238C607.29 119.238 608.41 120.498 608.449 123.018V130H606.076V123.154C606.076 122.484 605.93 121.989 605.637 121.67C605.35 121.344 604.878 121.182 604.221 121.182C603.264 121.182 602.551 121.615 602.082 122.48V130H599.709V119.434H601.945Z" fill="#FCFCFC"/>
<path d="M521.916 310.717V316H519.445V301.781H524.885C526.473 301.781 527.733 302.195 528.664 303.021C529.602 303.848 530.07 304.942 530.07 306.303C530.07 307.696 529.611 308.78 528.693 309.555C527.782 310.329 526.503 310.717 524.855 310.717H521.916ZM521.916 308.734H524.885C525.764 308.734 526.434 308.529 526.896 308.119C527.359 307.702 527.59 307.104 527.59 306.322C527.59 305.554 527.355 304.942 526.887 304.486C526.418 304.024 525.773 303.786 524.953 303.773H521.916V308.734ZM537.541 307.602C537.229 307.549 536.906 307.523 536.574 307.523C535.487 307.523 534.755 307.94 534.377 308.773V316H532.004V305.434H534.27L534.328 306.615C534.901 305.697 535.695 305.238 536.711 305.238C537.049 305.238 537.329 305.284 537.551 305.375L537.541 307.602ZM543.498 316.195C541.994 316.195 540.773 315.723 539.836 314.779C538.905 313.829 538.439 312.566 538.439 310.99V310.697C538.439 309.643 538.641 308.702 539.045 307.875C539.455 307.042 540.028 306.394 540.764 305.932C541.499 305.469 542.32 305.238 543.225 305.238C544.663 305.238 545.773 305.697 546.555 306.615C547.342 307.533 547.736 308.832 547.736 310.512V311.469H540.832C540.904 312.341 541.193 313.031 541.701 313.539C542.215 314.047 542.86 314.301 543.635 314.301C544.722 314.301 545.607 313.861 546.291 312.982L547.57 314.203C547.147 314.835 546.581 315.326 545.871 315.678C545.168 316.023 544.377 316.195 543.498 316.195ZM543.215 307.143C542.564 307.143 542.036 307.37 541.633 307.826C541.236 308.282 540.982 308.917 540.871 309.73H545.393V309.555C545.34 308.76 545.129 308.161 544.758 307.758C544.387 307.348 543.872 307.143 543.215 307.143ZM543.752 301H546.457L543.752 303.959H541.848L543.752 301ZM553.928 314.301C554.52 314.301 555.012 314.128 555.402 313.783C555.793 313.438 556.001 313.012 556.027 312.504H558.264C558.238 313.161 558.033 313.777 557.648 314.35C557.264 314.916 556.743 315.365 556.086 315.697C555.428 316.029 554.719 316.195 553.957 316.195C552.479 316.195 551.307 315.717 550.441 314.76C549.576 313.803 549.143 312.481 549.143 310.795V310.551C549.143 308.943 549.572 307.657 550.432 306.693C551.291 305.723 552.463 305.238 553.947 305.238C555.204 305.238 556.226 305.606 557.014 306.342C557.808 307.071 558.225 308.031 558.264 309.223H556.027C556.001 308.617 555.793 308.119 555.402 307.729C555.018 307.338 554.527 307.143 553.928 307.143C553.16 307.143 552.567 307.423 552.15 307.982C551.734 308.536 551.522 309.379 551.516 310.512V310.893C551.516 312.038 551.721 312.895 552.131 313.461C552.548 314.021 553.146 314.301 553.928 314.301ZM562.58 316H560.207V305.434H562.58V316ZM560.061 302.689C560.061 302.325 560.174 302.022 560.402 301.781C560.637 301.54 560.969 301.42 561.398 301.42C561.828 301.42 562.16 301.54 562.395 301.781C562.629 302.022 562.746 302.325 562.746 302.689C562.746 303.048 562.629 303.347 562.395 303.588C562.16 303.822 561.828 303.939 561.398 303.939C560.969 303.939 560.637 303.822 560.402 303.588C560.174 303.347 560.061 303.048 560.061 302.689ZM571.096 313.129C571.096 312.706 570.92 312.383 570.568 312.162C570.223 311.941 569.647 311.745 568.84 311.576C568.033 311.407 567.359 311.192 566.818 310.932C565.633 310.359 565.041 309.529 565.041 308.441C565.041 307.53 565.425 306.768 566.193 306.156C566.962 305.544 567.938 305.238 569.123 305.238C570.386 305.238 571.405 305.551 572.18 306.176C572.961 306.801 573.352 307.611 573.352 308.607H570.979C570.979 308.152 570.809 307.774 570.471 307.475C570.132 307.169 569.683 307.016 569.123 307.016C568.602 307.016 568.176 307.136 567.844 307.377C567.518 307.618 567.355 307.94 567.355 308.344C567.355 308.708 567.508 308.992 567.814 309.193C568.12 309.395 568.739 309.6 569.67 309.809C570.601 310.01 571.33 310.255 571.857 310.541C572.391 310.821 572.785 311.16 573.039 311.557C573.299 311.954 573.43 312.436 573.43 313.002C573.43 313.952 573.036 314.724 572.248 315.316C571.46 315.902 570.428 316.195 569.152 316.195C568.286 316.195 567.515 316.039 566.838 315.727C566.161 315.414 565.633 314.984 565.256 314.438C564.878 313.891 564.689 313.301 564.689 312.67H566.994C567.027 313.23 567.238 313.663 567.629 313.969C568.02 314.268 568.537 314.418 569.182 314.418C569.807 314.418 570.282 314.301 570.607 314.066C570.933 313.826 571.096 313.513 571.096 313.129ZM578.029 316H575.656V305.434H578.029V316ZM575.51 302.689C575.51 302.325 575.624 302.022 575.852 301.781C576.086 301.54 576.418 301.42 576.848 301.42C577.277 301.42 577.609 301.54 577.844 301.781C578.078 302.022 578.195 302.325 578.195 302.689C578.195 303.048 578.078 303.347 577.844 303.588C577.609 303.822 577.277 303.939 576.848 303.939C576.418 303.939 576.086 303.822 575.852 303.588C575.624 303.347 575.51 303.048 575.51 302.689ZM580.178 310.619C580.178 309.584 580.383 308.653 580.793 307.826C581.203 306.993 581.779 306.355 582.521 305.912C583.264 305.463 584.117 305.238 585.08 305.238C586.506 305.238 587.661 305.697 588.547 306.615C589.439 307.533 589.921 308.751 589.992 310.268L590.002 310.824C590.002 311.866 589.8 312.797 589.396 313.617C588.999 314.438 588.426 315.072 587.678 315.521C586.936 315.971 586.076 316.195 585.1 316.195C583.609 316.195 582.414 315.701 581.516 314.711C580.624 313.715 580.178 312.39 580.178 310.736V310.619ZM582.551 310.824C582.551 311.911 582.775 312.764 583.225 313.383C583.674 313.995 584.299 314.301 585.1 314.301C585.9 314.301 586.522 313.988 586.965 313.363C587.414 312.738 587.639 311.824 587.639 310.619C587.639 309.551 587.408 308.705 586.945 308.08C586.49 307.455 585.868 307.143 585.08 307.143C584.305 307.143 583.69 307.452 583.234 308.07C582.779 308.682 582.551 309.6 582.551 310.824ZM594.211 305.434L594.279 306.654C595.061 305.71 596.086 305.238 597.355 305.238C599.556 305.238 600.676 306.498 600.715 309.018V316H598.342V309.154C598.342 308.484 598.195 307.989 597.902 307.67C597.616 307.344 597.144 307.182 596.486 307.182C595.529 307.182 594.816 307.615 594.348 308.48V316H591.975V305.434H594.211Z" fill="#FCFCFC"/>
<path d="M174.645 262.689H169.137L167.984 266H165.416L170.787 251.781H173.004L178.385 266H175.807L174.645 262.689ZM169.83 260.697H173.951L171.891 254.799L169.83 260.697ZM186.061 264.965C185.364 265.785 184.374 266.195 183.092 266.195C181.946 266.195 181.077 265.86 180.484 265.189C179.898 264.519 179.605 263.549 179.605 262.279V255.434H181.979V262.25C181.979 263.591 182.535 264.262 183.648 264.262C184.801 264.262 185.579 263.848 185.982 263.021V255.434H188.355V266H186.119L186.061 264.965ZM193.746 252.865V255.434H195.611V257.191H193.746V263.09C193.746 263.493 193.824 263.786 193.98 263.969C194.143 264.145 194.43 264.232 194.84 264.232C195.113 264.232 195.39 264.2 195.67 264.135V265.971C195.13 266.12 194.609 266.195 194.107 266.195C192.285 266.195 191.373 265.189 191.373 263.178V257.191H189.635V255.434H191.373V252.865H193.746ZM196.695 260.619C196.695 259.584 196.9 258.653 197.311 257.826C197.721 256.993 198.297 256.355 199.039 255.912C199.781 255.463 200.634 255.238 201.598 255.238C203.023 255.238 204.179 255.697 205.064 256.615C205.956 257.533 206.438 258.751 206.51 260.268L206.52 260.824C206.52 261.866 206.318 262.797 205.914 263.617C205.517 264.438 204.944 265.072 204.195 265.521C203.453 265.971 202.594 266.195 201.617 266.195C200.126 266.195 198.932 265.701 198.033 264.711C197.141 263.715 196.695 262.39 196.695 260.736V260.619ZM199.068 260.824C199.068 261.911 199.293 262.764 199.742 263.383C200.191 263.995 200.816 264.301 201.617 264.301C202.418 264.301 203.04 263.988 203.482 263.363C203.932 262.738 204.156 261.824 204.156 260.619C204.156 259.551 203.925 258.705 203.463 258.08C203.007 257.455 202.385 257.143 201.598 257.143C200.823 257.143 200.208 257.452 199.752 258.07C199.296 258.682 199.068 259.6 199.068 260.824ZM210.758 255.434L210.826 256.537C211.568 255.671 212.584 255.238 213.873 255.238C215.286 255.238 216.253 255.779 216.773 256.859C217.542 255.779 218.622 255.238 220.016 255.238C221.181 255.238 222.047 255.561 222.613 256.205C223.186 256.85 223.479 257.8 223.492 259.057V266H221.119V259.125C221.119 258.454 220.973 257.963 220.68 257.65C220.387 257.338 219.902 257.182 219.225 257.182C218.684 257.182 218.242 257.328 217.896 257.621C217.558 257.908 217.32 258.285 217.184 258.754L217.193 266H214.82V259.047C214.788 257.803 214.153 257.182 212.916 257.182C211.965 257.182 211.292 257.569 210.895 258.344V266H208.521V255.434H210.758ZM232.242 266C232.138 265.798 232.047 265.469 231.969 265.014C231.214 265.801 230.289 266.195 229.195 266.195C228.134 266.195 227.268 265.893 226.598 265.287C225.927 264.682 225.592 263.933 225.592 263.041C225.592 261.915 226.008 261.052 226.842 260.453C227.682 259.848 228.88 259.545 230.436 259.545H231.891V258.852C231.891 258.305 231.738 257.868 231.432 257.543C231.126 257.211 230.66 257.045 230.035 257.045C229.495 257.045 229.052 257.182 228.707 257.455C228.362 257.722 228.189 258.064 228.189 258.48H225.816C225.816 257.901 226.008 257.361 226.393 256.859C226.777 256.352 227.298 255.954 227.955 255.668C228.619 255.382 229.358 255.238 230.172 255.238C231.409 255.238 232.395 255.551 233.131 256.176C233.867 256.794 234.244 257.667 234.264 258.793V263.559C234.264 264.509 234.397 265.268 234.664 265.834V266H232.242ZM229.635 264.291C230.104 264.291 230.543 264.177 230.953 263.949C231.37 263.721 231.682 263.415 231.891 263.031V261.039H230.611C229.732 261.039 229.072 261.192 228.629 261.498C228.186 261.804 227.965 262.237 227.965 262.797C227.965 263.253 228.115 263.617 228.414 263.891C228.72 264.158 229.127 264.291 229.635 264.291ZM239.723 252.865V255.434H241.588V257.191H239.723V263.09C239.723 263.493 239.801 263.786 239.957 263.969C240.12 264.145 240.406 264.232 240.816 264.232C241.09 264.232 241.367 264.2 241.646 264.135V265.971C241.106 266.12 240.585 266.195 240.084 266.195C238.261 266.195 237.35 265.189 237.35 263.178V257.191H235.611V255.434H237.35V252.865H239.723ZM245.934 266H243.561V255.434H245.934V266ZM243.414 252.689C243.414 252.325 243.528 252.022 243.756 251.781C243.99 251.54 244.322 251.42 244.752 251.42C245.182 251.42 245.514 251.54 245.748 251.781C245.982 252.022 246.1 252.325 246.1 252.689C246.1 253.048 245.982 253.347 245.748 253.588C245.514 253.822 245.182 253.939 244.752 253.939C244.322 253.939 243.99 253.822 243.756 253.588C243.528 253.347 243.414 253.048 243.414 252.689ZM254.449 263.129C254.449 262.706 254.273 262.383 253.922 262.162C253.577 261.941 253.001 261.745 252.193 261.576C251.386 261.407 250.712 261.192 250.172 260.932C248.987 260.359 248.395 259.529 248.395 258.441C248.395 257.53 248.779 256.768 249.547 256.156C250.315 255.544 251.292 255.238 252.477 255.238C253.74 255.238 254.758 255.551 255.533 256.176C256.314 256.801 256.705 257.611 256.705 258.607H254.332C254.332 258.152 254.163 257.774 253.824 257.475C253.486 257.169 253.036 257.016 252.477 257.016C251.956 257.016 251.529 257.136 251.197 257.377C250.872 257.618 250.709 257.94 250.709 258.344C250.709 258.708 250.862 258.992 251.168 259.193C251.474 259.395 252.092 259.6 253.023 259.809C253.954 260.01 254.684 260.255 255.211 260.541C255.745 260.821 256.139 261.16 256.393 261.557C256.653 261.954 256.783 262.436 256.783 263.002C256.783 263.952 256.389 264.724 255.602 265.316C254.814 265.902 253.782 266.195 252.506 266.195C251.64 266.195 250.868 266.039 250.191 265.727C249.514 265.414 248.987 264.984 248.609 264.438C248.232 263.891 248.043 263.301 248.043 262.67H250.348C250.38 263.23 250.592 263.663 250.982 263.969C251.373 264.268 251.891 264.418 252.535 264.418C253.16 264.418 253.635 264.301 253.961 264.066C254.286 263.826 254.449 263.513 254.449 263.129ZM265.172 266C265.068 265.798 264.977 265.469 264.898 265.014C264.143 265.801 263.219 266.195 262.125 266.195C261.064 266.195 260.198 265.893 259.527 265.287C258.857 264.682 258.521 263.933 258.521 263.041C258.521 261.915 258.938 261.052 259.771 260.453C260.611 259.848 261.809 259.545 263.365 259.545H264.82V258.852C264.82 258.305 264.667 257.868 264.361 257.543C264.055 257.211 263.59 257.045 262.965 257.045C262.424 257.045 261.982 257.182 261.637 257.455C261.292 257.722 261.119 258.064 261.119 258.48H258.746C258.746 257.901 258.938 257.361 259.322 256.859C259.706 256.352 260.227 255.954 260.885 255.668C261.549 255.382 262.288 255.238 263.102 255.238C264.339 255.238 265.325 255.551 266.061 256.176C266.796 256.794 267.174 257.667 267.193 258.793V263.559C267.193 264.509 267.327 265.268 267.594 265.834V266H265.172ZM262.564 264.291C263.033 264.291 263.473 264.177 263.883 263.949C264.299 263.721 264.612 263.415 264.82 263.031V261.039H263.541C262.662 261.039 262.001 261.192 261.559 261.498C261.116 261.804 260.895 262.237 260.895 262.797C260.895 263.253 261.044 263.617 261.344 263.891C261.65 264.158 262.057 264.291 262.564 264.291ZM272.652 252.865V255.434H274.518V257.191H272.652V263.09C272.652 263.493 272.73 263.786 272.887 263.969C273.049 264.145 273.336 264.232 273.746 264.232C274.02 264.232 274.296 264.2 274.576 264.135V265.971C274.036 266.12 273.515 266.195 273.014 266.195C271.191 266.195 270.279 265.189 270.279 263.178V257.191H268.541V255.434H270.279V252.865H272.652ZM278.863 266H276.49V255.434H278.863V266ZM276.344 252.689C276.344 252.325 276.458 252.022 276.686 251.781C276.92 251.54 277.252 251.42 277.682 251.42C278.111 251.42 278.443 251.54 278.678 251.781C278.912 252.022 279.029 252.325 279.029 252.689C279.029 253.048 278.912 253.347 278.678 253.588C278.443 253.822 278.111 253.939 277.682 253.939C277.252 253.939 276.92 253.822 276.686 253.588C276.458 253.347 276.344 253.048 276.344 252.689ZM281.012 260.619C281.012 259.584 281.217 258.653 281.627 257.826C282.037 256.993 282.613 256.355 283.355 255.912C284.098 255.463 284.951 255.238 285.914 255.238C287.34 255.238 288.495 255.697 289.381 256.615C290.273 257.533 290.755 258.751 290.826 260.268L290.836 260.824C290.836 261.866 290.634 262.797 290.23 263.617C289.833 264.438 289.26 265.072 288.512 265.521C287.77 265.971 286.91 266.195 285.934 266.195C284.443 266.195 283.248 265.701 282.35 264.711C281.458 263.715 281.012 262.39 281.012 260.736V260.619ZM283.385 260.824C283.385 261.911 283.609 262.764 284.059 263.383C284.508 263.995 285.133 264.301 285.934 264.301C286.734 264.301 287.356 263.988 287.799 263.363C288.248 262.738 288.473 261.824 288.473 260.619C288.473 259.551 288.242 258.705 287.779 258.08C287.324 257.455 286.702 257.143 285.914 257.143C285.139 257.143 284.524 257.452 284.068 258.07C283.613 258.682 283.385 259.6 283.385 260.824ZM295.045 255.434L295.113 256.654C295.895 255.71 296.92 255.238 298.189 255.238C300.39 255.238 301.51 256.498 301.549 259.018V266H299.176V259.154C299.176 258.484 299.029 257.989 298.736 257.67C298.45 257.344 297.978 257.182 297.32 257.182C296.363 257.182 295.65 257.615 295.182 258.48V266H292.809V255.434H295.045Z" fill="#FCFCFC"/>
<defs>
<filter id="filter0_d" x="346" y="0" width="386" height="248" filterUnits="userSpaceOnUse" color-interpolation-filters="sRGB">
<feFlood flood-opacity="0" result="BackgroundImageFix"/>
<feColorMatrix in="SourceAlpha" type="matrix" values="0 0 0 0 0 0 0 0 0 0 0 0 0 0 0 0 0 0 127 0"/>
<feOffset/>
<feGaussianBlur stdDeviation="39.5"/>
<feColorMatrix type="matrix" values="0 0 0 0 0 0 0 0 0 0 0 0 0 0 0 0 0 0 0.15 0"/>
<feBlend mode="normal" in2="BackgroundImageFix" result="effect1_dropShadow"/>
<feBlend mode="normal" in="SourceGraphic" in2="effect1_dropShadow" result="shape"/>
</filter>
<filter id="filter1_d" x="387" y="181" width="345" height="257" filterUnits="userSpaceOnUse" color-interpolation-filters="sRGB">
<feFlood flood-opacity="0" result="BackgroundImageFix"/>
<feColorMatrix in="SourceAlpha" type="matrix" values="0 0 0 0 0 0 0 0 0 0 0 0 0 0 0 0 0 0 127 0"/>
<feOffset/>
<feGaussianBlur stdDeviation="39.5"/>
<feColorMatrix type="matrix" values="0 0 0 0 0 0 0 0 0 0 0 0 0 0 0 0 0 0 0.15 0"/>
<feBlend mode="normal" in2="BackgroundImageFix" result="effect1_dropShadow"/>
<feBlend mode="normal" in="SourceGraphic" in2="effect1_dropShadow" result="shape"/>
</filter>
<filter id="filter2_d" x="0" y="143" width="467" height="233" filterUnits="userSpaceOnUse" color-interpolation-filters="sRGB">
<feFlood flood-opacity="0" result="BackgroundImageFix"/>
<feColorMatrix in="SourceAlpha" type="matrix" values="0 0 0 0 0 0 0 0 0 0 0 0 0 0 0 0 0 0 127 0"/>
<feOffset/>
<feGaussianBlur stdDeviation="39.5"/>
<feColorMatrix type="matrix" values="0 0 0 0 0 0 0 0 0 0 0 0 0 0 0 0 0 0 0.15 0"/>
<feBlend mode="normal" in2="BackgroundImageFix" result="effect1_dropShadow"/>
<feBlend mode="normal" in="SourceGraphic" in2="effect1_dropShadow" result="shape"/>
</filter>
<linearGradient id="paint0_linear" x1="513.784" y1="131.527" x2="383.938" y2="357.345" gradientUnits="userSpaceOnUse">
<stop stop-color="#54C278"/>
<stop offset="1" stop-color="#54C278" stop-opacity="0"/>
</linearGradient>
</defs>
</svg>
