<svg width="342" height="342" viewBox="0 0 342 342" fill="none" xmlns="http://www.w3.org/2000/svg">
<path d="M188.758 243.895C188.138 244.602 187.845 246.371 188.31 247.084C189.101 248.151 190.271 248.873 191.579 249.1C193.987 249.405 196.463 249.192 198.91 249.192C201.358 249.192 203.828 249.405 206.241 249.1C207.548 248.866 208.721 248.15 209.527 247.095C210.004 246.429 209.849 244.653 209.269 244.039C208.334 243.145 207.113 242.611 205.822 242.533C201.225 242.367 196.664 242.373 192.091 242.533C190.85 242.562 189.664 243.047 188.758 243.895Z" fill="black" fill-opacity="0.05"/>
<path d="M222.046 82.07C226.751 82.2653 231.474 82.2423 236.179 82.07C237.453 82.0395 238.67 81.5356 239.592 80.6567C240.235 79.9328 240.528 78.1115 240.051 77.3761C239.241 76.285 238.042 75.5484 236.702 75.3194C234.295 75.0034 231.807 75.2275 229.354 75.2275H221.971C221.845 75.2275 221.713 75.2275 221.586 75.2275C218.49 75.5032 216.651 78.2781 218.363 80.3981C219.334 81.4031 220.651 82.0008 222.046 82.07Z" fill="black" fill-opacity="0.05"/>
<path d="M207.723 278.671C207.124 278.485 206.505 278.371 205.879 278.332C201.243 278.332 196.595 278.234 191.958 278.372C190.782 278.415 189.66 278.885 188.804 279.694C188.195 280.36 188.023 281.768 188.23 282.744C188.546 284.393 190.086 284.922 191.562 284.996C194.004 285.123 196.451 285.031 198.899 285.031V285.088C200.777 285.088 202.662 285.152 204.54 285.088C205.723 285.033 206.895 284.84 208.034 284.514C209.418 284.117 210.004 282.951 209.947 281.601C209.889 280.251 209.223 279.056 207.723 278.671Z" fill="black" fill-opacity="0.05"/>
<path d="M146.181 278.343C143.883 278.228 141.527 278.314 139.2 278.314C136.902 278.314 134.552 278.268 132.226 278.314C129.732 278.377 128.204 279.659 128.147 281.6C128.089 283.542 129.485 284.726 131.927 285.048C132.427 285.094 132.93 285.111 133.432 285.099C137.327 285.099 141.223 285.099 145.124 285.099C145.938 285.111 146.751 285.02 147.542 284.829C149.674 284.255 150.547 282.577 149.84 280.469C149.254 278.682 147.686 278.418 146.181 278.343Z" fill="black" fill-opacity="0.05"/>
<path d="M150.007 246.003C150.085 245.308 149.909 244.608 149.512 244.032C149.115 243.456 148.524 243.042 147.847 242.866C146.95 242.588 146.017 242.444 145.078 242.441C141.056 242.395 137.034 242.384 133.013 242.441C132.03 242.441 130.864 242.516 130.14 243.016C129.273 243.63 128.261 244.785 128.279 245.687C128.279 246.704 129.227 247.882 130.071 248.646C130.646 249.146 131.72 249.134 132.582 249.157C134.713 249.226 136.845 249.157 138.976 249.157V249.318C141.906 249.152 144.848 249.088 147.766 248.778C149.277 248.675 149.95 247.526 150.007 246.003Z" fill="black" fill-opacity="0.05"/>
<path d="M83.1674 241.379C82.5342 241.248 81.8893 241.183 81.2428 241.183C77.0948 241.183 72.9467 241.149 68.8045 241.183C67.8995 241.204 67.0004 241.335 66.1272 241.574C64.6277 241.97 63.9268 243.073 63.7889 244.567C63.7102 245.221 63.8584 245.882 64.2088 246.439C64.5592 246.997 65.0904 247.417 65.7135 247.629C66.5548 247.956 67.4482 248.127 68.3506 248.135C70.6487 248.198 72.8893 248.135 75.1529 248.135V248.066C77.744 248.066 80.3236 248.192 82.9204 248.026C85.0346 247.888 86.2699 246.486 86.2871 244.688C86.3043 242.89 85.3219 241.821 83.1674 241.379Z" fill="black" fill-opacity="0.05"/>
<path d="M161.773 52.0112C164.221 52.1089 166.68 52.0112 169.133 52.0112C171.649 52.0112 174.166 52.1089 176.676 51.9768C178.928 51.8619 180.238 50.4773 180.21 48.5871C180.181 46.7888 178.894 45.387 176.734 45.3411C171.833 45.2319 166.921 45.2721 162.02 45.3411C161.141 45.3411 159.946 45.6973 159.487 46.3235C158.798 47.2677 158.472 48.4279 158.567 49.5925C158.791 51.2012 160.222 51.948 161.773 52.0112Z" fill="black" fill-opacity="0.05"/>
<path d="M265.939 242.476C265.502 242.433 265.063 242.416 264.624 242.425C260.723 242.425 256.827 242.39 252.926 242.425C251.938 242.425 250.772 242.425 250.002 242.901C249.052 243.517 248.322 244.418 247.917 245.475C247.457 246.797 248.256 247.974 249.497 248.56C250.354 248.937 251.278 249.142 252.214 249.164C254.346 249.25 256.489 249.164 258.626 249.164H265.606C268.105 249.043 269.628 247.808 269.685 245.86C269.743 243.913 268.375 242.769 265.939 242.476Z" fill="black" fill-opacity="0.05"/>
<path d="M178.452 81.7542C177.584 81.3923 176.656 81.1974 175.717 81.1797C173.585 81.105 171.442 81.1797 169.305 81.1797C167.294 81.1797 165.284 81.1797 163.273 81.1797C160.055 81.1797 158.343 82.3977 158.361 84.5981C158.378 86.7985 160.009 87.9303 163.152 87.959C167.235 87.9973 171.322 87.9973 175.412 87.959C176.291 87.9495 177.163 87.814 178.003 87.5568C178.606 87.3788 179.141 87.0219 179.536 86.5335C179.931 86.045 180.169 85.4479 180.218 84.8213C180.266 84.1947 180.123 83.5682 179.808 83.0246C179.493 82.481 179.02 82.046 178.452 81.7772V81.7542Z" fill="black" fill-opacity="0.05"/>
<path d="M97.4328 81.8462C98.3123 82.0545 99.212 82.1662 100.116 82.1794C102.121 82.2311 104.137 82.1794 106.131 82.1794C106.131 82.2311 106.131 82.2828 106.131 82.3345C109.004 82.1737 111.939 82.1105 114.823 81.8002C116.426 81.6221 117.265 80.3754 117.323 78.784C117.38 77.1926 116.541 75.6586 115.025 75.6069C109.099 75.4077 103.172 75.4077 97.2432 75.6069C95.6977 75.6586 94.7555 77.1179 94.836 78.8759C94.9394 80.542 95.9046 81.4785 97.4328 81.8462Z" fill="black" fill-opacity="0.05"/>
<path d="M176.82 260.568C171.795 260.522 166.766 260.522 161.733 260.568C159.527 260.568 158.343 261.78 158.343 263.756C158.343 265.733 159.521 266.905 161.721 266.951C164.238 267.002 166.754 266.951 169.265 266.951C171.776 266.951 174.298 266.991 176.814 266.951C179.015 266.905 180.198 265.738 180.204 263.762C180.21 261.786 179.026 260.585 176.82 260.568Z" fill="black" fill-opacity="0.05"/>
<path d="M113.692 259.838C108.655 259.811 103.617 259.811 98.5761 259.838C96.1401 259.838 94.8877 260.987 94.8704 263.096C94.8532 265.204 96.1056 266.376 98.5071 266.416C101.092 266.462 103.678 266.416 106.257 266.416C108.716 266.416 111.17 266.445 113.623 266.416C115.955 266.382 117.351 265.141 117.369 263.159C117.386 261.177 115.984 259.855 113.692 259.838Z" fill="black" fill-opacity="0.05"/>
<path d="M236.524 149.082C234.588 149.008 232.646 149.048 230.704 149.054C227.538 149.054 224.384 148.99 221.201 149.14C219.047 149.243 217.611 150.863 217.754 152.587C217.91 154.546 219.191 155.626 221.495 155.649C224.017 155.683 226.539 155.649 229.061 155.649C231.583 155.649 233.973 155.649 236.432 155.649C238.776 155.649 240.523 154.259 240.505 152.455C240.488 150.524 239 149.18 236.524 149.082Z" fill="black" fill-opacity="0.05"/>
<path d="M206.454 171.052C203.937 171.017 201.427 171.052 198.91 171.052C196.273 171.052 193.636 171.006 190.999 171.052C190.245 171.105 189.531 171.407 188.967 171.91C188.404 172.414 188.023 173.09 187.885 173.832C187.828 174.592 188.045 175.347 188.496 175.961C188.946 176.576 189.602 177.008 190.344 177.182C191.076 177.356 191.827 177.439 192.579 177.429C195.842 177.429 199.111 177.429 202.375 177.429C203.881 177.474 205.388 177.436 206.89 177.314C208.786 177.096 210.05 175.671 209.987 174.108C209.912 172.241 208.631 171.086 206.454 171.052Z" fill="black" fill-opacity="0.05"/>
<path d="M52.4709 186.024C47.1738 185.951 41.8748 185.951 36.5739 186.024C35.6907 186.023 34.8406 186.36 34.1992 186.968C33.5578 187.575 33.1739 188.405 33.1268 189.287C33.1268 191.011 34.7757 192.539 36.7463 192.568C39.3316 192.608 41.9169 192.568 44.5023 192.568C47.0876 192.568 49.673 192.596 52.2583 192.568C54.1829 192.539 55.8146 191.137 55.895 189.523C55.9065 189.066 55.8264 188.612 55.6593 188.188C55.4923 187.763 55.2417 187.376 54.9224 187.049C54.6032 186.723 54.2217 186.464 53.8006 186.288C53.3795 186.112 52.9273 186.022 52.4709 186.024Z" fill="black" fill-opacity="0.05"/>
<path d="M236.702 118.707C237.501 118.679 238.592 118.558 239 118.041C239.69 117.179 240.379 115.927 240.287 114.915C240.126 113.192 238.759 112.244 237.007 112.192C234.295 112.112 231.583 112.129 228.866 112.135C226.286 112.135 223.695 112.06 221.121 112.232C218.972 112.376 217.674 113.922 217.783 115.789C217.892 117.656 219.082 118.69 221.385 118.724C223.971 118.759 226.556 118.724 229.141 118.724C231.727 118.724 234.174 118.788 236.702 118.707Z" fill="black" fill-opacity="0.05"/>
<path d="M67.5635 100.443C70.011 100.506 72.4699 100.443 74.9231 100.443C77.3763 100.443 79.9559 100.495 82.4723 100.443C84.9887 100.391 86.3445 99.1275 86.2756 96.996C86.2067 94.8645 84.9714 93.8591 82.4723 93.8419C77.4931 93.8151 72.5139 93.8151 67.5348 93.8419C65.0529 93.8419 63.8176 94.945 63.7602 97.019C63.72 99.2136 64.9494 100.374 67.5635 100.443Z" fill="black" fill-opacity="0.05"/>
<path d="M237.041 186.018C231.744 185.955 226.453 185.949 221.156 186.018C220.273 186.024 219.426 186.369 218.79 186.982C218.154 187.594 217.777 188.428 217.737 189.31C217.737 191.033 219.403 192.533 221.38 192.562C223.902 192.596 226.418 192.562 228.935 192.562C231.583 192.562 234.232 192.59 236.88 192.562C238.92 192.533 240.454 191.079 240.459 189.275C240.437 188.391 240.064 187.551 239.424 186.94C238.783 186.329 237.926 185.998 237.041 186.018Z" fill="black" fill-opacity="0.05"/>
<path d="M206.442 135.178C203.931 135.144 201.421 135.178 198.91 135.178C196.399 135.178 193.895 135.15 191.384 135.178C189.408 135.207 187.937 136.626 187.937 138.378C187.959 139.24 188.323 140.057 188.948 140.651C189.573 141.244 190.408 141.566 191.269 141.544C196.355 141.613 201.438 141.613 206.517 141.544C208.499 141.544 210.05 139.987 210.016 138.321C209.981 136.655 208.367 135.207 206.442 135.178Z" fill="black" fill-opacity="0.05"/>
<path d="M36.7692 155.649C39.3546 155.683 41.9399 155.649 44.5253 155.649C47.1106 155.649 49.6959 155.678 52.2755 155.649C54.4587 155.614 55.7629 154.5 55.872 152.661C55.9059 152.22 55.8486 151.776 55.7038 151.358C55.559 150.939 55.3296 150.555 55.03 150.229C54.7305 149.903 54.367 149.642 53.9624 149.463C53.5577 149.283 53.1204 149.189 52.6777 149.185C47.2581 149.048 41.8346 149.048 36.4073 149.185C35.9626 149.184 35.5223 149.273 35.1135 149.449C34.7047 149.624 34.3361 149.881 34.0304 150.203C33.7247 150.526 33.4883 150.909 33.3359 151.326C33.1834 151.744 33.1181 152.189 33.144 152.633C33.2245 154.212 34.8504 155.62 36.7692 155.649Z" fill="black" fill-opacity="0.05"/>
<path d="M236.897 222.914C231.723 222.848 226.552 222.848 221.385 222.914C219.334 222.914 217.737 224.511 217.766 226.229C217.795 227.946 219.438 229.446 221.431 229.475C223.959 229.509 226.487 229.475 229.009 229.475C231.664 229.475 234.324 229.532 236.972 229.475C238.994 229.417 240.419 228.021 240.482 226.28C240.546 224.539 239 222.96 236.897 222.914Z" fill="black" fill-opacity="0.05"/>
<path d="M206.442 206.93C203.931 206.896 201.421 206.93 198.916 206.93C196.279 206.93 193.648 206.902 191.011 206.93C189.321 206.93 188.092 208.051 188.04 209.516C188.006 210.579 188.942 211.848 189.764 212.704C190.264 213.227 191.39 213.279 192.24 213.279C194.687 213.353 197.135 213.319 199.582 213.308C202.03 213.296 204.357 213.376 206.729 213.204C208.803 213.055 210.062 211.549 209.947 209.757C209.832 207.964 208.688 206.959 206.442 206.93Z" fill="black" fill-opacity="0.05"/>
<path d="M177.383 224.74C172.105 224.648 166.823 224.648 161.538 224.74C161.11 224.746 160.687 224.836 160.295 225.005C159.902 225.175 159.547 225.42 159.25 225.728C158.953 226.036 158.72 226.4 158.564 226.798C158.408 227.197 158.333 227.622 158.343 228.05C158.407 229.917 159.579 231.02 161.71 231.066C164.226 231.118 166.743 231.066 169.259 231.066C171.965 231.066 174.671 231.146 177.371 231.037C179.175 230.962 180.198 229.693 180.204 227.9C180.21 226.108 179.181 224.769 177.383 224.74Z" fill="black" fill-opacity="0.05"/>
<path d="M67.4198 130.801C65.0701 130.835 63.8578 131.95 63.7831 133.932C63.7084 135.914 64.8288 137.287 67.1498 137.327C72.3894 137.423 77.6329 137.423 82.8802 137.327C83.3361 137.349 83.7915 137.275 84.2165 137.109C84.6416 136.942 85.0268 136.688 85.3468 136.363C85.6668 136.037 85.9145 135.648 86.0735 135.22C86.2326 134.792 86.2995 134.336 86.2698 133.88C86.1837 131.967 84.9772 130.864 82.7595 130.818C80.1742 130.772 77.5888 130.818 74.992 130.818C72.3952 130.818 69.942 130.755 67.4198 130.801Z" fill="black" fill-opacity="0.05"/>
<path d="M113.479 149.053C109.848 149.053 106.223 149.053 102.598 149.053C101.11 149.053 99.6102 148.984 98.1337 149.116C95.8815 149.317 94.79 150.581 94.8646 152.667C94.9336 154.614 96.0999 155.626 98.3807 155.654C100.909 155.654 103.431 155.654 105.959 155.654C108.676 155.654 111.399 155.729 114.117 155.654C116.61 155.568 118.138 153.264 117.127 151.219C116.803 150.536 116.283 149.966 115.633 149.58C114.984 149.194 114.234 149.011 113.479 149.053Z" fill="black" fill-opacity="0.05"/>
<path d="M251.203 105.712C253.656 105.769 256.109 105.712 258.563 105.712V105.683C261.205 105.683 263.848 105.769 266.485 105.654C267.347 105.638 268.167 105.282 268.768 104.665C269.369 104.047 269.703 103.218 269.697 102.356C269.645 100.483 268.479 99.3402 266.353 99.3172C261.32 99.2712 256.287 99.2712 251.255 99.3172C249.043 99.3172 247.853 100.506 247.842 102.477C247.831 104.448 249.003 105.643 251.203 105.712Z" fill="black" fill-opacity="0.05"/>
<path d="M191.642 105.712C194.032 105.758 196.428 105.712 198.818 105.712C201.461 105.712 204.104 105.786 206.741 105.712C207.6 105.687 208.417 105.332 209.023 104.722C209.628 104.111 209.975 103.291 209.993 102.431C209.899 101.584 209.495 100.802 208.858 100.235C208.222 99.6689 207.398 99.3582 206.546 99.3634C201.566 99.3366 196.587 99.3366 191.608 99.3634C189.402 99.3634 187.891 100.748 187.897 102.563C187.902 104.379 189.431 105.654 191.642 105.712Z" fill="black" fill-opacity="0.05"/>
<path d="M94.8647 189.505C94.8991 191.487 96.1056 192.533 98.5301 192.567C101.052 192.613 103.58 192.567 106.102 192.567C108.624 192.567 111.273 192.602 113.864 192.567C116.07 192.521 117.34 191.355 117.351 189.499C117.351 188.585 116.988 187.708 116.342 187.062C115.695 186.415 114.818 186.052 113.904 186.052C108.734 185.977 103.563 185.966 98.3922 186.052C95.9448 186.069 94.8244 187.293 94.8647 189.505Z" fill="black" fill-opacity="0.05"/>
<path d="M266.112 206.931C263.664 206.89 261.211 206.931 258.758 206.931C256.115 206.931 253.472 206.885 250.835 206.931C248.882 206.971 247.807 208.149 247.836 210.039C247.836 212.067 249.043 213.227 251.415 213.291C254.558 213.377 257.706 213.331 260.849 213.325C262.734 213.325 264.629 213.394 266.502 213.21C268.553 213.009 269.766 211.619 269.697 209.912C269.616 208.005 268.41 206.965 266.112 206.931Z" fill="black" fill-opacity="0.05"/>
<path d="M236.461 260.562C231.562 260.52 226.659 260.52 221.753 260.562C219.633 260.562 218.019 262.061 218.047 263.791C218.076 265.52 219.691 266.899 221.839 266.939C224.229 266.985 226.619 266.939 229.009 266.939C231.399 266.939 233.91 266.974 236.363 266.939C238.586 266.899 240.092 265.606 240.126 263.791C240.161 261.975 238.65 260.585 236.461 260.562Z" fill="black" fill-opacity="0.05"/>
<path d="M67.2705 211.193C69.9765 211.325 72.6997 211.239 75.4172 211.239C77.8761 211.239 80.3408 211.297 82.794 211.193C84.8738 211.107 86.333 209.573 86.2411 207.746C86.1779 205.741 84.937 204.638 82.6389 204.621C80.1167 204.621 77.5946 204.621 75.0667 204.621H67.3337C67.2067 204.594 67.0757 204.594 66.9488 204.621C66.0123 205.098 64.7828 205.356 64.2198 206.115C62.726 208.16 64.4783 211.055 67.2705 211.193Z" fill="black" fill-opacity="0.05"/>
<path d="M129.899 176.952C130.632 177.302 131.436 177.477 132.249 177.464C136.77 177.504 141.297 177.464 145.825 177.464C146.391 177.479 146.957 177.421 147.508 177.291C149.369 176.809 150.202 175.568 149.984 173.649C149.806 172.046 148.703 171.098 146.836 171.069C144.262 171.029 141.665 171.069 139.103 171.069C136.466 171.069 133.823 171.035 131.186 171.069C130.482 171.021 129.785 171.239 129.235 171.681C128.685 172.123 128.321 172.756 128.216 173.453C128.046 174.141 128.122 174.867 128.429 175.505C128.736 176.144 129.256 176.655 129.899 176.952Z" fill="black" fill-opacity="0.05"/>
<path d="M114.163 229.48C115.76 229.48 116.915 228.705 117.265 227.084C117.616 225.464 116.88 224.154 115.444 223.373C114.807 223.065 114.106 222.911 113.399 222.925C108.418 222.89 103.437 222.879 98.4612 222.925C96.0827 222.925 94.8359 224.189 94.8819 226.303C94.9279 228.417 96.1286 229.451 98.4497 229.497C100.972 229.543 103.494 229.497 106.016 229.497C108.728 229.492 111.457 229.515 114.163 229.48Z" fill="black" fill-opacity="0.05"/>
<path d="M251.324 177.418C256.287 177.504 261.257 177.492 266.221 177.418C266.677 177.422 267.13 177.335 267.552 177.162C267.974 176.989 268.358 176.732 268.679 176.408C269 176.084 269.254 175.699 269.423 175.275C269.593 174.852 269.676 174.398 269.668 173.942C269.599 172.155 268.364 171.069 266.186 171.069C263.67 171.029 261.154 171.069 258.643 171.069C256.253 171.069 253.863 171.069 251.473 171.069C249.083 171.069 247.911 172.006 247.819 173.913C247.733 176.044 248.922 177.377 251.324 177.418Z" fill="black" fill-opacity="0.05"/>
<path d="M117.047 116.8C117.219 115.714 117.047 114.18 116.363 113.473C115.588 112.663 114.105 112.25 112.916 112.192C109.555 112.025 106.188 112.123 102.822 112.129C101.205 112.076 99.5865 112.107 97.9728 112.221C95.7724 112.451 94.7268 113.812 94.8819 115.915C95.0198 117.73 96.1861 118.701 98.3635 118.73C100.891 118.759 103.414 118.73 105.936 118.73C108.722 118.73 111.503 118.73 114.289 118.73C115.685 118.742 116.846 118.098 117.047 116.8Z" fill="black" fill-opacity="0.05"/>
<path d="M281.561 159.332C284.014 159.332 286.467 159.332 288.914 159.332C291.362 159.332 293.947 159.366 296.458 159.332C298.618 159.291 299.853 158.183 299.905 156.396C299.906 155.502 299.559 154.643 298.938 154C298.318 153.357 297.472 152.98 296.578 152.949C295.205 152.851 293.815 152.903 292.436 152.908C288.788 152.908 285.14 152.851 281.52 152.949C279.194 153.012 278.044 154.264 278.073 156.333C278.067 158.32 279.216 159.309 281.561 159.332Z" fill="black" fill-opacity="0.05"/>
<path d="M161.193 117.202C159.274 117.616 158.211 118.926 158.355 120.615C158.51 122.384 159.647 123.396 161.716 123.436C164.295 123.487 166.886 123.436 169.449 123.436C172.011 123.436 174.619 123.482 177.188 123.436C179.279 123.384 180.388 122.045 180.198 119.989C180.026 118.093 178.75 117.116 176.274 117.07C171.873 117.03 167.467 117.07 163.06 117.07C162.435 117.051 161.809 117.095 161.193 117.202Z" fill="black" fill-opacity="0.05"/>
<path d="M150.001 102.311C150.001 100.369 148.812 99.3462 146.462 99.306C144.015 99.2657 141.562 99.306 139.108 99.306C136.471 99.306 133.829 99.2772 131.192 99.306C130.489 99.2651 129.796 99.4918 129.254 99.9405C128.711 100.389 128.359 101.027 128.267 101.725C127.917 103.31 128.623 104.454 129.928 105.172C130.601 105.503 131.343 105.669 132.094 105.654C136.87 105.7 141.646 105.7 146.422 105.654C148.852 105.677 150.024 104.517 150.001 102.311Z" fill="black" fill-opacity="0.05"/>
<path d="M191.654 69.8214C194.038 69.8616 196.428 69.8214 198.818 69.8214C201.335 69.8214 203.851 69.8616 206.362 69.8214C208.39 69.7755 209.947 68.3794 209.993 66.7075C210.039 65.0357 208.436 63.473 206.321 63.45C201.415 63.404 196.511 63.404 191.608 63.45C189.413 63.45 187.902 64.8518 187.92 66.6673C187.937 68.4828 189.436 69.7812 191.654 69.8214Z" fill="black" fill-opacity="0.05"/>
<path d="M176.716 152.96C171.753 152.874 166.789 152.886 161.825 152.96C161.371 152.956 160.921 153.042 160.5 153.213C160.08 153.385 159.698 153.639 159.377 153.96C159.056 154.281 158.802 154.663 158.631 155.083C158.459 155.503 158.373 155.953 158.378 156.407C158.441 158.194 159.682 159.28 161.859 159.28C164.37 159.326 166.886 159.28 169.403 159.28C171.793 159.28 174.177 159.28 176.567 159.28C178.957 159.28 180.135 158.344 180.227 156.436C180.307 154.333 179.118 153.001 176.716 152.96Z" fill="black" fill-opacity="0.05"/>
<path d="M161.882 195.199C164.33 195.239 166.783 195.199 169.23 195.199C171.678 195.199 174.131 195.199 176.579 195.199C179.026 195.199 180.175 194.078 180.198 192.056C180.227 190.137 179.049 188.879 176.797 188.839C171.776 188.754 166.752 188.754 161.727 188.839C161.285 188.827 160.844 188.905 160.432 189.067C160.02 189.229 159.645 189.473 159.329 189.783C159.013 190.094 158.763 190.465 158.594 190.874C158.425 191.283 158.339 191.722 158.343 192.165C158.407 194.09 159.613 195.158 161.882 195.199Z" fill="black" fill-opacity="0.05"/>
<path d="M296.452 188.833C291.431 188.764 286.404 188.753 281.382 188.833C279.05 188.873 277.976 190.12 278.033 192.28C278.085 194.182 279.268 195.153 281.635 195.21C284.002 195.268 286.536 195.21 288.983 195.21C291.431 195.21 293.884 195.239 296.331 195.21C298.629 195.176 299.779 194.13 299.859 192.159C299.855 191.717 299.764 191.279 299.59 190.872C299.417 190.465 299.165 190.096 298.848 189.787C298.531 189.478 298.156 189.234 297.745 189.071C297.334 188.907 296.895 188.826 296.452 188.833Z" fill="black" fill-opacity="0.05"/>
<path d="M131.91 141.567C134.3 141.619 136.684 141.567 139.074 141.567C141.464 141.567 143.848 141.613 146.232 141.567C148.881 141.504 150.042 140.418 150.001 138.155C149.967 136.184 148.76 135.19 146.25 135.179C141.474 135.152 136.699 135.152 131.927 135.179C129.405 135.179 128.135 136.328 128.17 138.379C128.198 140.137 129.772 141.521 131.91 141.567Z" fill="black" fill-opacity="0.05"/>
<path d="M131.117 206.959C129.462 206.999 128.371 207.901 128.187 209.584C128.063 210.311 128.213 211.057 128.608 211.679C129.003 212.301 129.614 212.754 130.324 212.951C131.16 213.215 132.033 213.339 132.909 213.319C137.121 213.359 141.326 213.319 145.549 213.319C146.175 213.339 146.801 213.288 147.416 213.169C149.323 212.727 150.168 211.521 150.001 209.602C149.858 207.913 148.737 206.947 146.767 206.919C144.256 206.884 141.74 206.919 139.229 206.919C136.517 206.942 133.817 206.89 131.117 206.959Z" fill="black" fill-opacity="0.05"/>
<path d="M266.232 135.184C263.779 135.139 261.332 135.184 258.884 135.184C256.437 135.184 253.984 135.156 251.536 135.184C249.089 135.213 247.905 136.236 247.842 138.258C247.779 140.28 248.991 141.516 251.364 141.55C256.32 141.631 261.282 141.631 266.25 141.55C266.691 141.567 267.131 141.496 267.545 141.34C267.958 141.185 268.336 140.949 268.657 140.645C268.978 140.342 269.236 139.978 269.414 139.574C269.593 139.17 269.689 138.734 269.697 138.293C269.679 136.351 268.467 135.225 266.232 135.184Z" fill="black" fill-opacity="0.05"/>
<path d="M131.944 69.8158C136.774 69.858 141.606 69.858 146.439 69.8158C148.87 69.8158 149.996 68.7472 150.007 66.656C150.019 64.5647 148.91 63.4731 146.514 63.4272C144.118 63.3812 141.619 63.4272 139.172 63.4272C136.724 63.4272 134.397 63.4272 132.013 63.4272C129.824 63.4272 128.147 64.8807 128.17 66.6675C128.193 68.4542 129.801 69.7986 131.944 69.8158Z" fill="black" fill-opacity="0.05"/>
<path d="M86.2698 170.828C86.2067 168.903 85.0002 167.771 82.8227 167.731C80.2316 167.674 77.6521 167.731 75.0495 167.731C72.4469 167.731 69.8788 167.691 67.2762 167.731C65.0816 167.771 63.8751 168.88 63.8291 170.828C63.8169 171.268 63.8924 171.707 64.0513 172.118C64.2102 172.528 64.4492 172.904 64.7546 173.221C65.0599 173.539 65.4253 173.793 65.8297 173.968C66.234 174.142 66.6691 174.235 67.1096 174.24C72.4182 174.344 77.7287 174.344 83.041 174.24C83.4772 174.229 83.9067 174.131 84.305 173.953C84.7034 173.775 85.0628 173.52 85.3626 173.203C85.6625 172.886 85.8969 172.513 86.0526 172.106C86.2083 171.698 86.2821 171.264 86.2698 170.828Z" fill="black" fill-opacity="0.05"/>
<path d="M232.031 171.046C232.031 169.047 230.779 167.708 228.86 167.725C226.809 167.725 225.545 168.943 225.51 170.914C225.547 171.787 225.911 172.615 226.529 173.233C227.147 173.852 227.975 174.215 228.848 174.252C229.268 174.252 229.684 174.169 230.072 174.007C230.459 173.846 230.811 173.609 231.107 173.311C231.403 173.013 231.637 172.66 231.796 172.271C231.954 171.882 232.034 171.466 232.031 171.046Z" fill="black" fill-opacity="0.05"/>
<path d="M165.898 66.7363C165.884 67.1438 165.953 67.55 166.103 67.9293C166.253 68.3085 166.48 68.6528 166.769 68.9403C167.058 69.2278 167.404 69.4525 167.784 69.6002C168.164 69.7479 168.57 69.8154 168.978 69.7985C170.701 69.7525 172.27 68.1611 172.229 66.5467C172.232 66.1232 172.147 65.7036 171.981 65.314C171.815 64.9245 171.57 64.5732 171.263 64.2818C170.955 63.9905 170.591 63.7654 170.193 63.6203C169.795 63.4753 169.372 63.4134 168.949 63.4386C168.524 63.4291 168.103 63.51 167.712 63.6758C167.321 63.8416 166.969 64.0885 166.681 64.4003C166.392 64.712 166.174 65.0815 166.039 65.4842C165.904 65.8869 165.856 66.3137 165.898 66.7363Z" fill="black" fill-opacity="0.05"/>
<path d="M225.516 133.967C225.538 134.848 225.896 135.688 226.518 136.313C227.14 136.938 227.978 137.301 228.86 137.327C229.285 137.348 229.709 137.278 230.105 137.124C230.501 136.969 230.86 136.733 231.159 136.431C231.458 136.128 231.691 135.767 231.841 135.369C231.991 134.971 232.056 134.546 232.031 134.122C232.064 133.683 232.002 133.242 231.851 132.829C231.7 132.416 231.462 132.04 231.153 131.726C230.845 131.412 230.473 131.168 230.063 131.01C229.652 130.851 229.213 130.782 228.774 130.807C228.351 130.795 227.93 130.868 227.536 131.022C227.142 131.175 226.783 131.406 226.479 131.701C226.176 131.995 225.934 132.347 225.769 132.736C225.603 133.125 225.517 133.544 225.516 133.967Z" fill="black" fill-opacity="0.05"/>
<path d="M202.438 191.941C202.36 191.123 201.989 190.36 201.394 189.794C200.798 189.227 200.019 188.894 199.197 188.856C198.768 188.835 198.34 188.908 197.942 189.068C197.544 189.229 197.185 189.475 196.891 189.788C196.597 190.101 196.375 190.474 196.239 190.882C196.104 191.289 196.059 191.721 196.106 192.148C196.099 192.576 196.183 193 196.352 193.393C196.522 193.786 196.773 194.138 197.09 194.425C197.406 194.713 197.781 194.93 198.188 195.061C198.595 195.193 199.025 195.236 199.45 195.187C200.275 195.149 201.052 194.786 201.611 194.178C202.17 193.57 202.467 192.767 202.438 191.941Z" fill="black" fill-opacity="0.05"/>
<path d="M262.142 227.751C262.116 226.924 261.764 226.142 261.161 225.575C260.559 225.009 259.757 224.704 258.93 224.729C258.112 224.805 257.348 225.172 256.776 225.761C256.204 226.351 255.862 227.126 255.811 227.946C255.802 228.376 255.88 228.802 256.041 229.2C256.203 229.599 256.443 229.96 256.748 230.262C257.054 230.564 257.417 230.801 257.817 230.958C258.217 231.115 258.644 231.19 259.073 231.176C259.503 231.163 259.925 231.063 260.314 230.881C260.703 230.699 261.051 230.44 261.337 230.12C261.623 229.8 261.841 229.424 261.977 229.017C262.114 228.61 262.166 228.179 262.13 227.751H262.142Z" fill="black" fill-opacity="0.05"/>
<path d="M71.9816 189.367C71.9594 189.791 72.0264 190.216 72.1784 190.613C72.3303 191.009 72.5638 191.37 72.8637 191.671C73.1636 191.972 73.5234 192.207 73.9196 192.36C74.3159 192.514 74.74 192.582 75.1644 192.561C75.6032 192.598 76.0447 192.54 76.4593 192.392C76.874 192.244 77.2521 192.009 77.5683 191.703C77.8845 191.396 78.1314 191.026 78.2925 190.616C78.4537 190.206 78.5252 189.767 78.5023 189.327C78.5145 188.889 78.4365 188.452 78.2731 188.046C78.1097 187.639 77.8644 187.27 77.5525 186.962C77.2406 186.653 76.8687 186.413 76.4598 186.254C76.051 186.096 75.614 186.023 75.1759 186.041C74.3324 186.118 73.5452 186.497 72.9585 187.108C72.3718 187.719 72.025 188.521 71.9816 189.367Z" fill="black" fill-opacity="0.05"/>
<path d="M172.229 102.46C172.244 102.029 172.171 101.601 172.014 101.199C171.858 100.798 171.621 100.433 171.318 100.127C171.016 99.8204 170.654 99.5789 170.254 99.4172C169.855 99.2555 169.427 99.1769 168.997 99.1863C168.566 99.1957 168.142 99.2929 167.75 99.4718C167.358 99.6508 167.007 99.9078 166.718 100.227C166.429 100.547 166.209 100.921 166.07 101.329C165.931 101.737 165.876 102.168 165.91 102.598C165.919 103.007 166.008 103.411 166.173 103.786C166.338 104.162 166.576 104.5 166.872 104.784C167.168 105.067 167.517 105.289 167.899 105.438C168.281 105.586 168.689 105.658 169.098 105.648C169.917 105.584 170.684 105.225 171.26 104.639C171.835 104.053 172.179 103.279 172.229 102.46Z" fill="black" fill-opacity="0.05"/>
<path d="M40.8886 171.046C40.9662 171.891 41.349 172.68 41.9654 173.263C42.5818 173.847 43.3897 174.186 44.238 174.217C46.1052 174.217 47.4438 172.793 47.4093 170.77C47.4093 168.857 46.1339 167.668 44.1863 167.702C43.7467 167.693 43.3097 167.773 42.9022 167.938C42.4947 168.103 42.1252 168.35 41.8164 168.663C41.5077 168.976 41.2661 169.349 41.1065 169.759C40.947 170.169 40.8728 170.607 40.8886 171.046Z" fill="black" fill-opacity="0.05"/>
<path d="M78.5138 115.731C78.5598 113.956 76.9914 112.227 75.3425 112.232C74.4927 112.251 73.6795 112.582 73.0591 113.163C72.4388 113.744 72.055 114.534 71.9816 115.381C71.9126 117.346 73.1823 118.656 75.2104 118.719C77.2384 118.782 78.4621 117.616 78.5138 115.731Z" fill="black" fill-opacity="0.05"/>
<path d="M196.106 263.705C196.106 265.566 197.284 266.905 199.037 266.939C200.789 266.974 202.415 265.434 202.443 263.814C202.396 262.997 202.06 262.224 201.494 261.632C200.929 261.041 200.172 260.67 199.358 260.585C198.934 260.55 198.506 260.605 198.104 260.747C197.703 260.89 197.336 261.116 197.028 261.411C196.721 261.706 196.48 262.063 196.321 262.459C196.162 262.854 196.089 263.279 196.106 263.705Z" fill="black" fill-opacity="0.05"/>
<path d="M165.898 138.408C165.981 139.22 166.346 139.977 166.929 140.547C167.513 141.117 168.279 141.464 169.093 141.527C170.707 141.527 172.275 139.855 172.252 138.155C172.229 136.454 170.908 135.173 169.052 135.19C168.626 135.166 168.2 135.233 167.802 135.387C167.404 135.541 167.044 135.779 166.745 136.083C166.447 136.388 166.216 136.753 166.07 137.154C165.924 137.555 165.866 137.982 165.898 138.408Z" fill="black" fill-opacity="0.05"/>
<path d="M109.159 207.775C109.157 207.353 109.071 206.935 108.905 206.547C108.739 206.159 108.496 205.809 108.192 205.517C107.887 205.224 107.527 204.997 107.132 204.847C106.738 204.697 106.317 204.628 105.895 204.644C103.954 204.609 102.701 205.793 102.667 207.706C102.632 209.7 103.948 211.153 105.815 211.153C106.699 211.127 107.54 210.761 108.162 210.133C108.785 209.504 109.141 208.66 109.159 207.775Z" fill="black" fill-opacity="0.05"/>
<path d="M136.161 227.889C136.198 228.74 136.56 229.545 137.172 230.137C137.785 230.729 138.601 231.064 139.453 231.072C141.292 231.072 142.458 229.819 142.423 227.935C142.389 225.953 141.108 224.631 139.287 224.706C138.463 224.754 137.688 225.106 137.11 225.695C136.532 226.283 136.194 227.065 136.161 227.889Z" fill="black" fill-opacity="0.05"/>
<path d="M44.3529 204.644C42.3593 204.615 40.9058 205.942 40.9058 207.803C40.9349 208.684 41.3 209.52 41.9261 210.139C42.5522 210.759 43.3918 211.116 44.2725 211.136C44.6943 211.134 45.1114 211.047 45.4989 210.88C45.8863 210.713 46.2361 210.47 46.5274 210.164C46.8186 209.859 47.0453 209.498 47.1939 209.104C47.3425 208.709 47.4099 208.288 47.3921 207.867C47.4496 205.925 46.2603 204.678 44.3529 204.644Z" fill="black" fill-opacity="0.05"/>
<path d="M172.252 173.988C172.206 172.264 170.868 171.029 169.006 171.063C168.581 171.047 168.156 171.121 167.761 171.282C167.366 171.442 167.01 171.685 166.716 171.993C166.422 172.302 166.197 172.67 166.056 173.072C165.915 173.474 165.861 173.902 165.898 174.326C165.909 174.752 166.005 175.171 166.181 175.558C166.356 175.946 166.607 176.294 166.92 176.583C167.232 176.872 167.599 177.095 168 177.239C168.4 177.384 168.825 177.446 169.25 177.424C169.674 177.401 170.09 177.293 170.473 177.107C170.855 176.921 171.197 176.66 171.477 176.34C171.757 176.019 171.97 175.646 172.103 175.242C172.236 174.838 172.287 174.412 172.252 173.988Z" fill="black" fill-opacity="0.05"/>
<path d="M262.148 156.103C262.066 155.291 261.702 154.534 261.119 153.963C260.536 153.392 259.772 153.043 258.959 152.978C257.345 152.978 255.776 154.644 255.788 156.338C255.836 157.17 256.208 157.949 256.824 158.509C257.44 159.069 258.251 159.366 259.083 159.335C259.915 159.304 260.702 158.949 261.275 158.344C261.848 157.74 262.161 156.935 262.148 156.103Z" fill="black" fill-opacity="0.05"/>
<path d="M202.443 156.126C202.375 155.309 202.017 154.543 201.435 153.966C200.853 153.389 200.084 153.038 199.266 152.977C198.841 152.969 198.418 153.048 198.024 153.21C197.631 153.372 197.275 153.613 196.978 153.919C196.682 154.224 196.451 154.588 196.301 154.986C196.152 155.385 196.085 155.81 196.107 156.235C196.093 156.661 196.171 157.086 196.334 157.48C196.498 157.874 196.744 158.228 197.055 158.52C197.367 158.811 197.737 159.033 198.141 159.17C198.545 159.307 198.974 159.356 199.399 159.314C200.224 159.293 201.008 158.946 201.579 158.348C202.15 157.751 202.46 156.952 202.443 156.126Z" fill="black" fill-opacity="0.05"/>
<path d="M228.825 63.5187C229.264 63.5376 229.702 63.4626 230.11 63.2986C230.517 63.1346 230.885 62.8854 231.189 62.5678C231.492 62.2501 231.724 61.8713 231.87 61.4567C232.015 61.042 232.07 60.6012 232.031 60.1635C232.051 59.7419 231.984 59.3207 231.833 58.9266C231.681 58.5325 231.45 58.1741 231.153 57.8743C230.855 57.5744 230.499 57.3396 230.107 57.1848C229.714 57.03 229.293 56.9585 228.871 56.975C227.108 57.0152 225.453 58.6985 225.51 60.3359C225.6 61.1716 225.982 61.9488 226.588 62.5309C227.195 63.113 227.987 63.4628 228.825 63.5187Z" fill="black" fill-opacity="0.05"/>
<path d="M255.788 192.056C255.764 192.465 255.826 192.875 255.97 193.259C256.113 193.644 256.334 193.994 256.62 194.288C256.906 194.583 257.249 194.814 257.629 194.969C258.009 195.124 258.417 195.198 258.827 195.187C259.251 195.233 259.68 195.188 260.086 195.054C260.491 194.921 260.864 194.703 261.178 194.414C261.493 194.125 261.742 193.773 261.909 193.38C262.076 192.987 262.157 192.563 262.147 192.136C262.11 191.289 261.761 190.485 261.167 189.878C260.573 189.272 259.777 188.906 258.93 188.85C258.113 188.93 257.35 189.295 256.776 189.881C256.201 190.468 255.851 191.237 255.788 192.056Z" fill="black" fill-opacity="0.05"/>
<path d="M169.162 278.441C168.307 278.454 167.491 278.798 166.885 279.4C166.278 280.002 165.929 280.815 165.91 281.67C165.896 282.077 165.966 282.482 166.117 282.861C166.269 283.239 166.497 283.582 166.787 283.867C167.078 284.152 167.425 284.374 167.806 284.518C168.187 284.662 168.594 284.725 169.001 284.703C170.885 284.732 172.178 283.589 172.252 281.831C172.275 280.976 171.966 280.145 171.39 279.513C170.813 278.881 170.015 278.497 169.162 278.441Z" fill="black" fill-opacity="0.05"/>
<path d="M136.19 263.664C136.199 264.519 136.539 265.336 137.139 265.944C137.74 266.552 138.553 266.903 139.407 266.922C139.814 266.938 140.22 266.868 140.599 266.719C140.978 266.569 141.321 266.342 141.608 266.053C141.894 265.763 142.117 265.417 142.262 265.036C142.408 264.656 142.472 264.249 142.452 263.843C142.481 261.889 141.24 260.562 139.401 260.579C138.578 260.602 137.793 260.93 137.199 261.501C136.605 262.071 136.245 262.843 136.19 263.664Z" fill="black" fill-opacity="0.05"/>
<path d="M202.438 227.958C202.396 227.109 202.037 226.306 201.432 225.709C200.826 225.112 200.019 224.764 199.169 224.735C198.758 224.716 198.347 224.785 197.964 224.935C197.582 225.085 197.234 225.314 196.946 225.607C196.657 225.9 196.433 226.251 196.288 226.636C196.144 227.021 196.082 227.432 196.106 227.843C196.074 228.267 196.132 228.693 196.278 229.093C196.423 229.493 196.651 229.858 196.948 230.162C197.244 230.467 197.602 230.705 197.998 230.861C198.394 231.017 198.818 231.087 199.243 231.066C200.058 231.01 200.825 230.667 201.41 230.098C201.995 229.529 202.359 228.77 202.438 227.958Z" fill="black" fill-opacity="0.05"/>
<path d="M172.252 245.848C172.252 244.033 170.937 242.803 168.943 242.803C168.535 242.788 168.129 242.858 167.75 243.009C167.371 243.16 167.027 243.388 166.74 243.678C166.454 243.969 166.231 244.316 166.086 244.698C165.941 245.079 165.877 245.487 165.898 245.894C165.904 246.737 166.245 247.542 166.845 248.134C167.445 248.725 168.256 249.054 169.098 249.048C169.941 249.042 170.747 248.702 171.338 248.101C171.93 247.501 172.259 246.691 172.252 245.848Z" fill="black" fill-opacity="0.05"/>
<path d="M71.9586 152.581C71.9741 152.999 72.072 153.41 72.2465 153.789C72.4211 154.169 72.6689 154.511 72.9758 154.795C73.2827 155.079 73.6427 155.3 74.035 155.444C74.4273 155.589 74.8443 155.654 75.2621 155.637C75.6993 155.658 76.1358 155.584 76.5426 155.423C76.9495 155.261 77.3172 155.015 77.6215 154.7C77.9258 154.386 78.1597 154.01 78.3076 153.598C78.4555 153.186 78.5141 152.747 78.4794 152.311C78.3905 151.478 78.0125 150.702 77.4111 150.118C76.8097 149.535 76.0229 149.18 75.1874 149.117C73.5385 149.122 71.9126 150.863 71.9586 152.581Z" fill="black" fill-opacity="0.05"/>
<path d="M102.638 134.035C102.678 136.075 103.942 137.35 105.907 137.327C106.782 137.27 107.602 136.882 108.201 136.242C108.8 135.602 109.132 134.757 109.13 133.88C109.067 132.312 107.343 130.772 105.723 130.835C105.305 130.824 104.889 130.9 104.502 131.059C104.115 131.217 103.765 131.454 103.475 131.755C103.185 132.056 102.96 132.415 102.816 132.807C102.672 133.2 102.611 133.618 102.638 134.035Z" fill="black" fill-opacity="0.05"/>
<path d="M44.238 137.31C44.6605 137.334 45.0833 137.269 45.4792 137.119C45.875 136.97 46.2352 136.739 46.5366 136.442C46.838 136.145 47.0739 135.788 47.2291 135.394C47.3844 135.001 47.4556 134.579 47.4381 134.156C47.4783 132.214 46.289 130.847 44.4965 130.784C42.704 130.72 40.9805 132.26 40.9518 133.898C40.9596 134.779 41.3045 135.623 41.9157 136.258C42.5269 136.893 43.3579 137.269 44.238 137.31Z" fill="black" fill-opacity="0.05"/>
<path d="M196.106 120.362C196.084 120.77 196.148 121.178 196.293 121.56C196.438 121.942 196.662 122.289 196.949 122.58C197.236 122.87 197.581 123.098 197.961 123.247C198.342 123.396 198.749 123.465 199.157 123.447C199.581 123.469 200.006 123.404 200.404 123.257C200.802 123.109 201.166 122.882 201.474 122.589C201.782 122.296 202.026 121.943 202.193 121.552C202.36 121.161 202.445 120.741 202.443 120.316C202.477 119.878 202.42 119.438 202.275 119.024C202.13 118.609 201.901 118.229 201.602 117.908C201.302 117.587 200.939 117.331 200.536 117.158C200.133 116.984 199.698 116.896 199.259 116.899C198.819 116.902 198.386 116.997 197.985 117.176C197.584 117.356 197.225 117.616 196.931 117.942C196.636 118.267 196.412 118.651 196.273 119.067C196.134 119.484 196.083 119.925 196.124 120.362H196.106Z" fill="black" fill-opacity="0.05"/>
<path d="M232.031 97.2491C232.071 96.8131 232.017 96.3736 231.873 95.9599C231.73 95.5463 231.5 95.1679 231.199 94.85C230.898 94.5321 230.532 94.2819 230.127 94.1161C229.722 93.9502 229.286 93.8726 228.848 93.8882C228.012 93.9355 227.219 94.2767 226.609 94.8516C225.999 95.4266 225.612 96.1984 225.516 97.0308C225.543 97.9061 225.898 98.7393 226.511 99.3643C227.124 99.9893 227.951 100.36 228.825 100.403C229.248 100.427 229.671 100.362 230.067 100.212C230.463 100.063 230.824 99.8321 231.126 99.5352C231.428 99.2382 231.664 98.8815 231.82 98.4878C231.976 98.0941 232.048 97.6722 232.031 97.2491Z" fill="black" fill-opacity="0.05"/>
<path d="M258.976 87.5739C259.383 87.6067 259.793 87.5542 260.178 87.4195C260.564 87.2849 260.917 87.0711 261.215 86.792C261.513 86.5129 261.749 86.1745 261.909 85.7986C262.069 85.4228 262.148 85.0177 262.142 84.6094C262.2 84.1695 262.165 83.7223 262.04 83.2966C261.915 82.8709 261.702 82.4762 261.416 82.1377C261.129 81.7993 260.774 81.5247 260.375 81.3316C259.975 81.1386 259.54 81.0314 259.096 81.0168C258.653 81.0023 258.211 81.0808 257.8 81.2474C257.389 81.4139 257.017 81.6647 256.708 81.9837C256.4 82.3026 256.162 82.6826 256.009 83.0992C255.856 83.5158 255.793 83.9598 255.822 84.4025C255.701 86.218 257.006 87.5164 258.976 87.5739Z" fill="black" fill-opacity="0.05"/>
<path d="M109.159 170.914C109.159 169.357 107.55 167.771 105.884 167.725C105.465 167.684 105.042 167.733 104.643 167.869C104.245 168.006 103.881 168.227 103.575 168.517C103.27 168.807 103.031 169.159 102.874 169.55C102.717 169.941 102.646 170.361 102.667 170.782C102.632 172.879 103.816 174.229 105.763 174.229C106.646 174.216 107.49 173.865 108.122 173.249C108.754 172.632 109.125 171.796 109.159 170.914Z" fill="black" fill-opacity="0.05"/>
<path d="M232.031 207.855C232.055 207.436 231.992 207.017 231.846 206.624C231.699 206.23 231.473 205.872 231.181 205.57C230.888 205.269 230.537 205.032 230.148 204.873C229.76 204.715 229.343 204.638 228.923 204.649C228.471 204.623 228.018 204.692 227.595 204.852C227.171 205.012 226.786 205.26 226.464 205.578C226.142 205.897 225.891 206.28 225.727 206.702C225.562 207.124 225.489 207.575 225.51 208.028C225.599 208.866 225.986 209.645 226.601 210.221C227.216 210.798 228.018 211.135 228.86 211.17C229.694 211.079 230.469 210.696 231.049 210.09C231.629 209.484 231.977 208.693 232.031 207.855Z" fill="black" fill-opacity="0.05"/>
<path d="M71.9816 226.234C72.055 227.105 72.4475 227.918 73.0837 228.517C73.7199 229.116 74.555 229.459 75.4287 229.48C77.3591 229.406 78.6 228.021 78.5081 226.033C78.511 225.611 78.4262 225.193 78.259 224.806C78.0918 224.418 77.846 224.07 77.537 223.783C77.228 223.495 76.8626 223.275 76.4641 223.136C76.0655 222.998 75.6425 222.943 75.2218 222.977C74.3812 223.042 73.5919 223.407 72.9973 224.004C72.4027 224.602 72.0423 225.393 71.9816 226.234Z" fill="black" fill-opacity="0.05"/>
<path d="M105.712 100.426C106.14 100.435 106.566 100.358 106.965 100.202C107.364 100.046 107.729 99.8123 108.038 99.5151C108.346 99.218 108.594 98.8629 108.765 98.4701C108.937 98.0774 109.03 97.6547 109.038 97.2261C109.046 96.7976 108.97 96.3716 108.814 95.9725C108.658 95.5734 108.424 95.209 108.127 94.9002C107.83 94.5913 107.475 94.3439 107.082 94.1723C106.689 94.0006 106.267 93.908 105.838 93.8997C105.421 93.8742 105.003 93.9354 104.611 94.0794C104.219 94.2235 103.861 94.4473 103.56 94.7366C103.259 95.026 103.021 95.3747 102.861 95.7606C102.701 96.1466 102.623 96.5615 102.632 96.9791C102.621 99.0359 103.85 100.415 105.712 100.426Z" fill="black" fill-opacity="0.05"/>
<path d="M196.095 84.6039C196.095 86.4309 197.342 87.5971 199.215 87.5742C201.214 87.5454 202.489 86.2872 202.403 84.4315C202.369 83.6106 202.026 82.8328 201.444 82.2535C200.861 81.6741 200.082 81.3358 199.261 81.3062C198.412 81.3486 197.612 81.7136 197.023 82.3266C196.435 82.9396 196.103 83.7542 196.095 84.6039Z" fill="black" fill-opacity="0.05"/>
<path d="M75.377 81.8001C75.7958 81.815 76.2132 81.7426 76.6026 81.5876C76.992 81.4325 77.3448 81.1981 77.6388 80.8993C77.9327 80.6005 78.1613 80.2439 78.3099 79.852C78.4586 79.4601 78.5241 79.0416 78.5023 78.623C78.4671 77.7515 78.0989 76.9266 77.4736 76.3184C76.8483 75.7102 76.0136 75.3651 75.1414 75.354C74.2981 75.4058 73.5053 75.7734 72.9208 76.3834C72.3363 76.9935 72.003 77.8013 71.9873 78.646C72.039 80.6166 73.3144 81.8001 75.377 81.8001Z" fill="black" fill-opacity="0.05"/>
<path d="M165.91 209.855C165.864 211.578 167.421 213.268 169.006 213.239C169.859 213.203 170.667 212.848 171.268 212.243C171.87 211.638 172.221 210.828 172.252 209.976C172.264 209.568 172.191 209.162 172.038 208.783C171.885 208.405 171.655 208.063 171.363 207.778C171.071 207.493 170.723 207.271 170.341 207.127C169.959 206.984 169.552 206.921 169.144 206.942C167.289 206.913 165.961 208.114 165.91 209.855Z" fill="black" fill-opacity="0.05"/>
<path d="M231.945 245.894C231.981 245.487 231.928 245.077 231.79 244.692C231.652 244.307 231.433 243.957 231.147 243.665C230.861 243.373 230.515 243.146 230.133 243.001C229.751 242.855 229.342 242.793 228.935 242.821C226.912 242.821 225.62 243.97 225.637 245.854C225.646 246.676 225.965 247.464 226.529 248.061C227.094 248.658 227.862 249.021 228.682 249.077C229.529 249.062 230.338 248.724 230.944 248.133C231.551 247.541 231.909 246.741 231.945 245.894Z" fill="black" fill-opacity="0.05"/>
<path d="M288.828 141.521C289.646 141.442 290.405 141.059 290.954 140.447C291.503 139.835 291.802 139.04 291.793 138.218C291.748 137.403 291.394 136.635 290.804 136.071C290.214 135.507 289.432 135.188 288.616 135.179C286.714 135.179 285.565 136.414 285.588 138.442C285.569 138.865 285.641 139.288 285.799 139.681C285.957 140.074 286.198 140.429 286.505 140.721C286.813 141.013 287.179 141.236 287.58 141.374C287.981 141.512 288.406 141.562 288.828 141.521Z" fill="black" fill-opacity="0.05"/>
<path d="M142.481 191.976C142.506 191.552 142.44 191.128 142.287 190.732C142.134 190.337 141.898 189.978 141.595 189.682C141.291 189.385 140.927 189.158 140.528 189.014C140.129 188.871 139.704 188.815 139.281 188.85C138.46 188.919 137.696 189.295 137.139 189.901C136.583 190.508 136.275 191.302 136.276 192.125C136.311 192.941 136.655 193.713 137.239 194.284C137.823 194.855 138.602 195.182 139.419 195.199C141.332 195.222 142.481 193.998 142.481 191.976Z" fill="black" fill-opacity="0.05"/>
<path d="M255.788 120.5C255.822 122.223 257.143 123.453 258.999 123.441C259.407 123.465 259.815 123.404 260.198 123.263C260.581 123.121 260.931 122.902 261.225 122.618C261.519 122.335 261.751 121.994 261.907 121.616C262.063 121.239 262.139 120.833 262.13 120.425C262.13 118.788 260.642 117.167 259.126 117.139C258.241 117.152 257.396 117.511 256.772 118.139C256.148 118.767 255.795 119.614 255.788 120.5Z" fill="black" fill-opacity="0.05"/>
<path d="M199.134 51.8792C199.986 51.8736 200.802 51.5384 201.411 50.9438C202.021 50.3493 202.376 49.5417 202.403 48.6906C202.424 48.2865 202.36 47.8825 202.214 47.5051C202.068 47.1278 201.844 46.7855 201.556 46.5007C201.269 46.2159 200.924 45.9951 200.545 45.8527C200.167 45.7103 199.762 45.6495 199.358 45.6744C197.336 45.6744 196.112 46.8234 196.118 48.7136C196.129 49.5242 196.446 50.3006 197.006 50.8875C197.565 51.4744 198.325 51.8286 199.134 51.8792Z" fill="black" fill-opacity="0.05"/>
<path d="M105.631 63.5015C106.076 63.5301 106.522 63.4676 106.941 63.3177C107.361 63.1678 107.745 62.9337 108.071 62.6298C108.397 62.3259 108.657 61.9586 108.836 61.5505C109.015 61.1424 109.108 60.702 109.11 60.2565C109.113 59.811 109.024 59.3696 108.85 58.9596C108.675 58.5497 108.419 58.1796 108.096 57.8723C107.774 57.565 107.392 57.3269 106.974 57.1726C106.556 57.0182 106.111 56.951 105.666 56.9749C105.259 56.9778 104.857 57.0621 104.484 57.223C104.111 57.3839 103.773 57.618 103.492 57.9116C103.211 58.2051 102.991 58.5521 102.847 58.932C102.702 59.312 102.635 59.717 102.649 60.1233C102.592 62.048 103.821 63.444 105.631 63.5015Z" fill="black" fill-opacity="0.05"/>
<path d="M136.247 156.269C136.281 157.084 136.623 157.855 137.205 158.426C137.786 158.997 138.564 159.325 139.378 159.343C139.785 159.379 140.194 159.326 140.578 159.189C140.963 159.051 141.312 158.832 141.604 158.547C141.895 158.261 142.122 157.916 142.267 157.535C142.412 157.153 142.474 156.745 142.446 156.338C142.446 154.316 141.297 153.029 139.424 153.035C139.002 153.032 138.583 153.115 138.192 153.277C137.802 153.44 137.448 153.679 137.152 153.98C136.856 154.282 136.623 154.64 136.468 155.033C136.312 155.426 136.237 155.847 136.247 156.269Z" fill="black" fill-opacity="0.05"/>
<path d="M285.594 174.183C285.628 176.176 286.881 177.446 288.736 177.366C289.159 177.352 289.575 177.253 289.959 177.076C290.343 176.899 290.688 176.646 290.973 176.333C291.258 176.021 291.477 175.654 291.618 175.255C291.759 174.856 291.818 174.433 291.793 174.01C291.725 173.199 291.352 172.444 290.75 171.896C290.148 171.348 289.361 171.049 288.547 171.057C286.725 171.08 285.565 172.31 285.594 174.183Z" fill="black" fill-opacity="0.05"/>
<path d="M288.627 206.93C286.771 206.93 285.588 208.119 285.594 210.004C285.599 211.888 286.743 213.21 288.518 213.238C289.368 213.197 290.173 212.843 290.778 212.244C291.383 211.644 291.744 210.842 291.793 209.992C291.753 209.175 291.404 208.404 290.816 207.835C290.228 207.266 289.445 206.942 288.627 206.93Z" fill="black" fill-opacity="0.05"/>
<path d="M136.247 120.39C136.288 121.208 136.639 121.979 137.228 122.546C137.817 123.114 138.6 123.436 139.419 123.447C139.828 123.476 140.239 123.416 140.623 123.27C141.007 123.125 141.355 122.898 141.643 122.606C141.931 122.313 142.152 121.961 142.29 121.575C142.429 121.188 142.482 120.776 142.446 120.367C142.446 118.426 141.297 117.162 139.522 117.139C138.671 117.18 137.865 117.535 137.26 118.136C136.655 118.736 136.295 119.539 136.247 120.39Z" fill="black" fill-opacity="0.05"/>
<path d="M102.638 244.699C102.668 245.54 103.005 246.341 103.585 246.95C104.165 247.56 104.948 247.936 105.786 248.009C107.401 248.06 109.159 246.285 109.124 244.619C109.09 242.855 107.688 241.574 105.792 241.568C105.371 241.533 104.947 241.59 104.55 241.734C104.153 241.879 103.792 242.108 103.492 242.405C103.192 242.703 102.96 243.063 102.813 243.459C102.665 243.855 102.606 244.278 102.638 244.699Z" fill="black" fill-opacity="0.05"/>
<path d="M142.446 84.5116C142.446 82.6559 141.211 81.3172 139.505 81.2655C137.799 81.2138 136.408 82.6444 136.431 84.5633C136.405 84.9719 136.467 85.3815 136.614 85.7638C136.76 86.1462 136.988 86.4922 137.281 86.7782C137.574 87.0642 137.926 87.2834 138.312 87.4207C138.697 87.5581 139.108 87.6103 139.516 87.5737C141.51 87.5565 142.481 86.5569 142.446 84.5116Z" fill="black" fill-opacity="0.05"/>
<path d="M139.465 51.7068C141.487 51.7068 142.464 50.7128 142.446 48.6963C142.473 48.2878 142.411 47.8785 142.264 47.4964C142.117 47.1143 141.889 46.7686 141.596 46.483C141.303 46.1974 140.951 45.9788 140.565 45.8422C140.18 45.7055 139.769 45.6541 139.361 45.6915C137.368 45.6915 136.408 46.7027 136.431 48.748C136.454 50.7933 137.419 51.7068 139.465 51.7068Z" fill="black" fill-opacity="0.05"/>
</svg>
