<svg width="150" height="91" viewBox="0 0 150 91" fill="none" xmlns="http://www.w3.org/2000/svg">
<path d="M55.7674 29.6073C55.7674 28.0955 55.7674 26.7351 55.7674 25.3729C55.7674 24.0107 56.6119 23.0936 57.8359 23.0972C59.06 23.1007 59.876 24.0142 59.8831 25.3907C59.8903 26.7671 59.8831 28.1098 59.8831 29.5379H74.7034C74.7034 28.1347 74.6891 26.7511 74.7034 25.3658C74.7212 24.1086 75.3804 23.2859 76.4423 23.131C77.8 22.9351 78.8333 23.8326 78.869 25.3034C78.9046 26.6924 78.8779 28.0831 78.8779 29.5397H93.6981C93.6981 28.165 93.6981 26.8099 93.6981 25.4548C93.6981 24.0107 94.5159 23.0883 95.7667 23.099C97.0174 23.1096 97.8156 24.0231 97.8156 25.4851C97.8156 26.8152 97.8156 28.1454 97.8156 29.6073C98.931 29.6073 99.9875 29.5931 101.042 29.6073C105.14 29.675 108.169 32.2445 108.786 36.1958C108.847 36.6681 108.871 37.1443 108.859 37.6204C108.859 50.1136 108.859 62.6068 108.859 75.1C108.859 79.8135 105.63 83.0454 100.925 83.0454C84.7433 83.0454 68.5612 83.0454 52.3786 83.0454C47.568 83.0454 44.3609 79.8402 44.3609 75.0003V37.6061C44.3609 32.9051 47.568 29.6625 52.2806 29.6144C53.4155 29.5984 54.538 29.6073 55.7674 29.6073ZM47.8495 47.9483V48.9205C47.8495 57.6446 47.8495 66.37 47.8495 75.0965C47.8495 77.9455 49.5225 79.6087 52.391 79.6087H100.748C103.777 79.6087 105.416 77.9616 105.418 74.9291C105.418 66.2631 105.418 57.5972 105.418 48.9312V47.9483H47.8495ZM59.8849 33.1544C59.8849 34.798 59.8849 36.3917 59.8849 37.9854C59.8849 39.401 59.1099 40.286 57.8769 40.3003C56.5941 40.3234 55.7727 39.4242 55.7692 37.9854C55.7692 36.3828 55.7692 34.7962 55.7692 33.1046C54.4774 33.1046 53.2748 33.0903 52.0632 33.1046C49.5866 33.1402 47.8833 34.8407 47.8548 37.3176C47.8352 39.0983 47.8548 40.879 47.8548 42.6597C47.8548 43.0033 47.8851 43.3488 47.9029 43.7281H105.317C105.317 41.2618 105.422 38.8348 105.279 36.4273C105.183 34.8105 103.688 33.3717 102.054 33.1936C100.686 33.0458 99.2873 33.1633 97.8174 33.1633C97.8174 34.8852 97.837 36.5698 97.8174 38.2525C97.7996 39.4883 96.9266 40.3216 95.7239 40.3074C94.564 40.2932 93.7373 39.4705 93.7124 38.2685C93.691 37.2892 93.7124 36.3098 93.7124 35.3304V33.1437H78.8815V34.1427C78.8815 35.4782 78.9082 36.8137 78.8725 38.1474C78.8369 39.4812 77.9692 40.311 76.7577 40.2985C75.6031 40.286 74.7532 39.4295 74.7105 38.1617C74.6748 37.0345 74.7016 35.9074 74.7016 34.7784V33.142L59.8849 33.1544Z" fill="#54C278"/>
<path d="M76.6133 61.6701C75.2503 61.6701 73.8873 61.6808 72.5154 61.6701C70.8317 61.6523 69.8856 60.7103 69.8642 59.0169C69.844 57.4737 69.844 55.9304 69.8642 54.3871C69.8838 52.6581 70.8531 51.6752 72.5671 51.6663C75.2646 51.6497 77.9621 51.6497 80.6596 51.6663C82.3664 51.6663 83.3321 52.6706 83.3481 54.3943C83.3588 55.9375 83.3588 57.4778 83.3481 59.0151C83.3357 60.6979 82.3807 61.6523 80.6988 61.6666C79.3429 61.679 77.9799 61.6701 76.6133 61.6701Z" fill="#54C278"/>
<path d="M60.0435 61.6701C58.6502 61.6701 57.2569 61.6861 55.8636 61.6701C54.3295 61.647 53.3603 60.7157 53.3246 59.1772C53.2854 57.5176 53.2801 55.858 53.3246 54.2002C53.3692 52.6207 54.3491 51.6859 55.942 51.6734C58.6977 51.6509 61.454 51.6509 64.2109 51.6734C65.8144 51.6877 66.7783 52.708 66.7908 54.3248C66.8026 55.8954 66.8026 57.4653 66.7908 59.0347C66.7783 60.7121 65.8251 61.6541 64.1289 61.6683C62.7766 61.679 61.4136 61.6701 60.0435 61.6701Z" fill="#54C278"/>
<path d="M93.1065 61.6683C91.7132 61.6683 90.3199 61.6879 88.9267 61.6683C87.4461 61.6433 86.4697 60.7049 86.4323 59.2252C86.3913 57.5371 86.3966 55.8419 86.4323 54.1609C86.4626 52.7079 87.4514 51.7018 88.9142 51.6822C91.7578 51.6466 94.6026 51.6466 97.4486 51.6822C98.9096 51.7018 99.8699 52.715 99.8966 54.1894C99.9263 55.8514 99.9263 57.5104 99.8966 59.1664C99.8681 60.696 98.9024 61.6433 97.3719 61.6683C95.9519 61.6861 94.5283 61.6683 93.1065 61.6683Z" fill="#54C278"/>
<path d="M60.104 74.4322C58.7107 74.4322 57.3174 74.4411 55.9241 74.4322C54.3936 74.4197 53.3834 73.4991 53.3371 71.9784C53.2854 70.2921 53.2854 68.5951 53.3371 66.9142C53.3852 65.3739 54.3758 64.4533 55.901 64.448C58.6852 64.4373 61.4712 64.4373 64.259 64.448C65.7823 64.4569 66.7729 65.4238 66.7979 66.9409C66.8246 68.5987 66.821 70.2583 66.7979 71.9161C66.7783 73.4261 65.7859 74.409 64.2803 74.434C62.8942 74.45 61.4973 74.4322 60.104 74.4322Z" fill="#54C278"/>
<path d="M93.1387 74.4323C91.7454 74.4323 90.3521 74.4465 88.9606 74.4323C87.4996 74.4145 86.4804 73.4672 86.4377 72.0052C86.3878 70.2887 86.3878 68.5709 86.4377 66.852C86.4787 65.39 87.4907 64.4569 88.9713 64.4498C91.7864 64.438 94.6014 64.438 97.4165 64.4498C98.8419 64.4587 99.8486 65.3989 99.8895 66.8181C99.9371 68.5656 99.9371 70.313 99.8895 72.0604C99.8486 73.4618 98.8205 74.4091 97.4041 74.4305C95.9876 74.4519 94.5605 74.4323 93.1387 74.4323Z" fill="#54C278"/>
<path d="M76.6846 64.4443C78.0779 64.4443 79.4712 64.4301 80.8645 64.4443C82.3255 64.4657 83.3215 65.429 83.35 66.8963C83.382 68.5844 83.3874 70.2796 83.35 71.9623C83.3161 73.4794 82.3201 74.4196 80.7825 74.4268C77.9959 74.441 75.2087 74.441 72.421 74.4268C70.9457 74.4179 69.9355 73.4812 69.8892 72.0086C69.8333 70.292 69.8333 68.5743 69.8892 66.8554C69.9355 65.3774 70.9439 64.4586 72.4192 64.4443C73.8374 64.4336 75.261 64.4443 76.6846 64.4443Z" fill="#54C278"/>
</svg>
