<svg width="117" height="82" viewBox="0 0 117 82" fill="none" xmlns="http://www.w3.org/2000/svg">
<path d="M54.6498 43.1155C60.3477 37.4609 65.8246 31.9908 71.3474 26.569C75.158 22.8263 78.9422 19.0464 82.9197 15.4828C85.6074 13.0736 89.3124 13.1948 91.6096 15.3644C93.8429 17.4692 94.2501 21.4157 91.9487 24.0082C88.1548 28.2895 84.0717 32.3242 80.0207 36.3768C72.7343 43.6665 65.3868 50.897 58.0532 58.1413C55.4127 60.7517 54.023 60.7792 51.3825 58.1826C45.5317 52.4164 39.7023 46.6309 33.8941 40.8261C31.2467 38.1772 30.8951 34.6604 32.9116 32.0225C34.8711 29.4603 38.6567 28.7812 41.7336 31.0087C44.5978 33.0832 47.0577 35.7142 49.6481 38.1496C51.281 39.6718 52.8292 41.2986 54.6498 43.1155Z" fill="#54C278"/>
<path d="M52.0176 70.331C45.7124 70.331 39.4072 70.3476 33.1034 70.331C27.8099 70.3131 22.9097 65.5277 22.8972 60.2973C22.8666 47.8759 22.8666 35.4545 22.8972 23.0331C22.9097 17.8867 27.8836 12.8864 33.0937 12.8644C45.6249 12.8106 58.1561 12.8464 70.6886 12.8492C71.0764 12.8492 71.4989 12.9208 71.8393 12.9153C77.6859 12.8161 74.7995 14.9017 74.7995 14.9017C74.7995 14.9017 72.3897 17.5699 71.1709 17.5823C59.0371 17.72 46.8992 17.5341 34.7599 17.5162C30.6547 17.5093 27.6723 20.4627 27.6556 24.5414C27.6056 35.9591 27.6056 47.3772 27.6556 58.7958C27.6737 62.763 30.5741 65.7577 34.557 65.7839C46.153 65.8564 57.7503 65.8537 69.3489 65.7756C72.9998 65.755 75.7806 63.354 76.1586 59.7298C76.4627 56.5826 76.5189 53.4167 76.3268 50.2608C76.1961 47.9011 77.3885 46.5099 79.027 45.2384C80.2528 44.288 81.2506 44.6296 81.2506 46.1255C81.2506 51.2857 81.2742 56.4568 80.9143 61.6004C80.6266 65.7012 75.707 70.7112 70.2217 70.4095C64.1736 70.0748 58.0907 70.331 52.0176 70.331Z" fill="#54C278"/>
</svg>
