<svg width="45" height="39" viewBox="0 0 45 39" fill="none" xmlns="http://www.w3.org/2000/svg">
<path d="M25.96 37L25.64 35.4C28.0933 33.0533 30.0667 30.4933 31.56 27.72C33.0533 24.84 33.8 22.1733 33.8 19.72C33.8 17.3733 33 15.24 31.4 13.32C29.9067 11.4 27.88 10.0133 25.32 9.15999L25.16 6.91999C28.5733 2.86666 31.9333 0.839996 35.24 0.839996C37.8 0.839996 39.9867 2.17333 41.8 4.83999C43.6133 7.39999 44.52 10.4933 44.52 14.12C44.52 17.8533 43.1867 21.9067 40.52 26.28C37.8533 30.5467 34.12 34.7067 29.32 38.76L25.96 37ZM1.16 37L0.84 35.4C3.29333 33.0533 5.26667 30.4933 6.76 27.72C8.25333 24.84 9 22.1733 9 19.72C9 17.3733 8.2 15.24 6.6 13.32C5.10667 11.4 3.08 10.0133 0.52 9.15999L0.36 6.91999C3.77333 2.86666 7.13333 0.839996 10.44 0.839996C13 0.839996 15.1867 2.17333 17 4.83999C18.8133 7.39999 19.72 10.4933 19.72 14.12C19.72 17.8533 18.3867 21.9067 15.72 26.28C13.0533 30.5467 9.32 34.7067 4.52 38.76L1.16 37Z" fill="#54C278"/>
</svg>
