<svg width="109" height="76" viewBox="0 0 109 76" fill="none" xmlns="http://www.w3.org/2000/svg">
<path d="M42.8457 66.2164C34.9972 66.2164 27.1483 66.2164 19.2989 66.2164C15.9987 66.2164 15.2141 65.1108 15.8835 61.9713C16.6253 58.4821 17.9705 55.2392 20.5806 52.8416C22.7933 50.8078 25.4863 49.2668 28.0524 47.6313C29.1827 46.9125 30.5486 46.564 31.7488 45.9384C32.031 45.7903 32.3184 45.0792 32.1916 44.8417C31.6787 43.848 31.0602 42.9107 30.3466 42.0457C28.7541 40.1664 27.0451 38.3433 27.0581 35.703C27.0581 34.7493 27.2134 33.5939 27.7663 32.8943C28.771 31.6176 28.802 30.2311 28.7671 28.8216C28.578 22.3257 35.5461 16.8077 41.0085 16.6992C44.5961 16.6277 47.9688 16.7528 51.1072 18.7241C53.8701 20.4578 55.7682 22.7815 56.7107 25.843C56.9994 26.775 57.3581 27.8219 57.1936 28.7284C56.8246 30.7354 57.8941 32.2878 58.6178 33.9041C59.4969 35.8767 58.8081 37.5198 57.8733 39.0889C57.1418 40.3171 56.0698 41.3474 55.1467 42.4632C54.7673 42.9228 54.3103 43.3377 54.0151 43.8459C53.0829 45.4507 53.2694 45.6895 55.025 46.3853C60.9289 48.7204 66.0365 51.9913 68.7204 58.0365C69.6811 60.198 69.9439 62.4463 69.7354 64.7571C69.6241 65.9917 68.5948 66.1806 67.6031 66.2062C65.7814 66.2521 63.9572 66.224 62.1342 66.224H42.8431L42.8457 66.2164Z" fill="#54C278"/>
<path d="M77.8675 35.135C80.198 36.2279 82.0766 37.0654 83.9164 37.9859C88.958 40.5061 92.6505 44.2584 94.2559 49.6805C94.7104 51.2126 94.7259 52.9681 94.4929 54.5563C94.4126 55.1066 92.9949 55.7909 92.1507 55.8458C89.5289 56.013 86.889 55.9083 84.253 55.9083C80.6084 55.9083 76.9625 55.8649 73.3179 55.9326C71.7539 55.962 70.4696 55.8726 69.8222 54.1146C69.4947 53.2285 68.701 52.5097 67.9125 51.4335H89.7283C89.5989 49.4188 88.6926 47.9774 87.6866 46.6432C85.2668 43.4413 81.674 41.9194 78.1666 40.2329C75.9578 39.1707 74.1776 39.2626 72.0232 40.5419C68.2259 42.7965 65.0111 41.5466 61.8404 39.4771C61.5568 39.292 61.2629 38.8464 61.2798 38.5387C61.3626 37.0066 61.5491 35.4861 61.7251 33.6987C62.1407 33.9911 62.4696 34.2719 62.8399 34.4788C64.3935 35.3418 65.8669 36.5751 67.5358 36.9377C69.9219 37.456 71.7423 35.8538 73.2403 34.1813C73.8876 33.4625 74.1776 32.4475 74.6864 31.6011C75.1567 30.7986 75.6818 30.0286 76.2582 29.2966C76.8499 28.5612 77.606 27.9535 78.1912 27.213C79.328 25.7754 79.1907 25.1588 78.1252 23.6727C77.685 23.0573 77.5037 22.1087 77.5529 21.3338C77.7445 18.276 77.3458 15.429 74.9454 13.2279C70.1019 8.78625 61.0027 10.2123 58.8367 16.4197C58.3097 17.9275 58.2217 19.5847 57.9109 21.2955C56.6408 19.9294 55.2594 18.6144 54.1382 17.1206C53.8261 16.7031 54.1731 15.683 54.4152 15.0077C55.9831 10.6196 60.5133 6.76649 66.2385 6.43327C70.3155 6.19708 74.0637 6.74989 77.3263 9.3263C80.4802 11.8159 82.0339 15.0996 82.1569 19.0421C82.1957 20.2971 82.2631 21.4244 83.0541 22.5556C84.4912 24.6085 83.9604 26.7559 82.7188 28.7234C82.0831 29.7307 81.2014 30.5848 80.4751 31.5398C79.6244 32.6582 78.8243 33.811 77.8675 35.135Z" fill="#54C278"/>
</svg>
