<svg width="467" height="298" viewBox="0 0 467 298" fill="none" xmlns="http://www.w3.org/2000/svg">
<rect x="232.246" y="0.144531" width="156.787" height="45.0863" rx="22.5431" fill="#54C278"/>
<rect x="82.8613" y="63.7656" width="156.787" height="45.0863" rx="22.5431" fill="#54C278"/>
<rect x="182.888" y="125.84" width="156.787" height="45.0863" rx="22.5431" fill="#54C278"/>
<rect x="295.536" y="189.736" width="156.787" height="45.0863" rx="22.5431" fill="#54C278"/>
<rect x="200.62" y="252.086" width="156.787" height="45.0863" rx="22.5431" fill="#54C278"/>
<rect x="89.9766" y="0.144531" width="108.88" height="45.0863" rx="22.5431" fill="#54C278"/>
<rect x="357.238" y="63.7656" width="108.88" height="45.0863" rx="22.5431" fill="#54C278"/>
<rect x="36.2627" y="125.84" width="108.88" height="45.0863" rx="22.5431" fill="#54C278"/>
<rect x="151.815" y="189.736" width="108.88" height="45.0863" rx="22.5431" fill="#54C278"/>
<rect x="56.8984" y="252.086" width="108.88" height="45.0863" rx="22.5431" fill="#54C278"/>
<ellipse cx="24.0668" cy="86.3088" rx="23.9535" ry="22.5431" fill="#54C278"/>
<ellipse cx="298.444" cy="86.3088" rx="23.9535" ry="22.5431" fill="#54C278"/>
<ellipse cx="93.0209" cy="212.279" rx="23.9535" ry="22.5431" fill="#54C278"/>
<ellipse cx="401.372" cy="148.383" rx="23.9535" ry="22.5431" fill="#54C278"/>
</svg>
