<svg width="805" height="342" viewBox="0 0 805 342" fill="none" xmlns="http://www.w3.org/2000/svg">
<path d="M789.523 317.886H792.817V313.449L794.513 311.674L799.104 317.886H802.996L796.709 309.505L802.697 303.293H798.805L792.817 309.702V303.293H789.523V317.886V317.886ZM783.635 317.985C784.234 317.886 784.733 317.689 785.232 317.492C785.731 317.294 786.13 316.999 786.529 316.703C786.929 316.407 787.328 316.013 787.727 315.618L785.631 313.548C785.032 314.041 784.434 314.534 783.935 314.829C783.336 315.125 782.637 315.322 781.839 315.322C781.24 315.322 780.641 315.224 780.142 314.928C779.643 314.632 779.144 314.336 778.745 313.942C778.346 313.548 778.046 313.055 777.847 312.463C777.647 311.871 777.547 311.28 777.547 310.688C777.547 310.097 777.647 309.505 777.847 308.913C778.046 308.322 778.346 307.927 778.745 307.434C779.144 307.04 779.543 306.646 780.142 306.448C780.641 306.251 781.24 306.054 781.839 306.054C782.537 306.054 783.236 306.153 783.835 306.448C784.434 306.744 785.032 307.139 785.631 307.632L787.727 305.265C787.428 304.969 787.028 304.674 786.629 304.378C786.23 304.082 785.831 303.885 785.332 303.688C784.833 303.49 784.334 303.293 783.735 303.195C783.136 303.096 782.537 302.997 781.839 302.997C780.741 302.997 779.643 303.195 778.745 303.589C777.847 303.983 776.949 304.575 776.35 305.167C775.651 305.857 775.152 306.646 774.753 307.533C774.354 308.42 774.154 309.406 774.154 310.491C774.154 311.576 774.354 312.562 774.753 313.449C775.152 314.336 775.651 315.125 776.35 315.815C777.048 316.506 777.847 316.999 778.745 317.393C779.643 317.787 780.641 317.985 781.739 317.985C782.438 318.182 783.036 318.083 783.635 317.985ZM768.665 317.886H771.959V303.293H768.665V317.886ZM756.29 317.886H766.869V314.928H759.484V303.293H756.29V317.886ZM750.402 317.985C751.001 317.886 751.5 317.689 751.999 317.492C752.498 317.294 752.897 316.999 753.296 316.703C753.695 316.407 754.094 316.013 754.494 315.618L752.398 313.548C751.799 314.041 751.2 314.534 750.701 314.829C750.102 315.125 749.404 315.322 748.605 315.322C748.007 315.322 747.408 315.224 746.909 314.928C746.41 314.731 745.911 314.336 745.512 313.942C745.112 313.548 744.813 313.055 744.613 312.463C744.414 311.871 744.314 311.28 744.314 310.688C744.314 310.097 744.414 309.505 744.613 308.913C744.813 308.322 745.112 307.927 745.512 307.434C745.911 307.04 746.31 306.646 746.909 306.448C747.408 306.251 748.007 306.054 748.605 306.054C749.304 306.054 750.003 306.153 750.601 306.448C751.2 306.744 751.799 307.139 752.398 307.632L754.494 305.265C754.194 304.969 753.795 304.674 753.396 304.378C752.997 304.082 752.597 303.885 752.098 303.688C751.599 303.49 751.1 303.293 750.502 303.195C749.903 303.096 749.304 302.997 748.605 302.997C747.508 302.997 746.41 303.195 745.512 303.589C744.613 303.983 743.715 304.575 743.116 305.167C742.418 305.857 741.919 306.646 741.52 307.533C741.12 308.42 740.921 309.406 740.921 310.491C740.921 311.576 741.12 312.562 741.52 313.449C741.919 314.336 742.418 315.125 743.116 315.815C743.815 316.506 744.613 316.999 745.512 317.393C746.41 317.787 747.408 317.985 748.506 317.985C749.204 318.182 749.903 318.083 750.402 317.985ZM730.043 317.886H733.236V303.195H731.041L726.749 304.476L727.448 307.139L730.043 306.547V317.886V317.886ZM706.689 317.886H709.883V308.618L717.069 317.886H719.863V303.293H716.669V312.266L709.783 303.293H706.789V317.886H706.689ZM700.602 317.886H703.895V303.293H700.602V317.886ZM689.723 317.787C690.422 317.59 690.921 317.294 691.42 316.9C691.919 316.506 692.218 316.013 692.518 315.52C692.817 314.928 692.917 314.336 692.917 313.548C692.917 312.956 692.817 312.364 692.618 311.871C692.418 311.378 692.119 310.984 691.719 310.688C691.32 310.392 690.821 310.097 690.222 309.801C689.624 309.604 688.925 309.308 688.226 309.111C687.628 308.913 687.029 308.815 686.63 308.716C686.23 308.618 685.931 308.42 685.632 308.322C685.432 308.223 685.232 308.026 685.133 307.829C685.033 307.632 685.033 307.434 685.033 307.237C685.033 306.843 685.232 306.547 685.532 306.35C685.831 306.153 686.33 305.955 686.929 305.955C687.528 305.955 688.226 306.054 688.825 306.35C689.424 306.646 690.123 306.941 690.721 307.434L692.418 304.969C691.62 304.378 690.821 303.885 689.923 303.589C689.025 303.293 688.027 303.096 686.929 303.096C686.131 303.096 685.432 303.195 684.833 303.392C684.234 303.589 683.636 303.885 683.236 304.279C682.737 304.674 682.438 305.167 682.139 305.66C681.839 306.153 681.739 306.843 681.739 307.434C681.739 308.125 681.839 308.716 682.039 309.209C682.238 309.702 682.638 310.097 683.037 310.392C683.436 310.688 683.935 310.984 684.534 311.181C685.133 311.378 685.831 311.576 686.53 311.773C687.129 311.97 687.628 312.069 688.027 312.167C688.426 312.266 688.725 312.463 688.925 312.562C689.125 312.66 689.324 312.857 689.324 313.055C689.424 313.252 689.424 313.35 689.424 313.646C689.424 314.041 689.224 314.435 688.825 314.632C688.426 314.829 687.927 315.027 687.228 315.027C686.43 315.027 685.632 314.829 684.933 314.534C684.234 314.238 683.536 313.745 682.837 313.252L680.941 315.52C681.839 316.308 682.837 316.9 683.935 317.294C685.033 317.689 686.131 317.886 687.228 317.886C688.326 318.083 689.125 317.985 689.723 317.787ZM666.47 317.886H669.664V308.618L676.849 317.886H679.644V303.293H676.45V312.266L669.564 303.293H666.57V317.886H666.47ZM654.793 314.829C654.294 314.632 653.795 314.238 653.396 313.843C652.997 313.449 652.698 312.956 652.498 312.364C652.298 311.773 652.199 311.181 652.199 310.59C652.199 309.998 652.298 309.406 652.498 308.815C652.698 308.223 652.997 307.829 653.396 307.336C653.795 306.843 654.294 306.547 654.793 306.35C655.292 306.153 655.891 305.955 656.59 305.955C657.189 305.955 657.787 306.054 658.386 306.35C658.985 306.646 659.384 306.941 659.783 307.336C660.183 307.73 660.482 308.223 660.682 308.815C660.881 309.406 660.981 309.998 660.981 310.59C660.981 311.181 660.881 311.773 660.682 312.364C660.482 312.956 660.183 313.35 659.783 313.843C659.384 314.336 658.885 314.632 658.386 314.829C657.887 315.027 657.288 315.224 656.59 315.224C655.891 315.125 655.292 315.027 654.793 314.829ZM659.684 317.492C660.682 317.097 661.48 316.506 662.179 315.914C662.877 315.224 663.376 314.435 663.775 313.548C664.175 312.66 664.374 311.674 664.374 310.59C664.374 309.505 664.175 308.618 663.775 307.632C663.376 306.744 662.877 305.955 662.179 305.265C661.48 304.575 660.682 304.082 659.684 303.688C658.686 303.293 657.688 303.096 656.49 303.096C655.392 303.096 654.294 303.293 653.296 303.688C652.298 304.082 651.5 304.674 650.801 305.265C650.103 305.857 649.604 306.744 649.205 307.632C648.805 308.519 648.606 309.505 648.606 310.59C648.606 311.674 648.805 312.562 649.205 313.548C649.604 314.435 650.103 315.224 650.801 315.914C651.5 316.604 652.298 317.097 653.296 317.492C654.294 317.886 655.292 318.083 656.49 318.083C657.688 318.182 658.785 317.985 659.684 317.492ZM643.316 317.886H646.61V303.293H643.316V317.886ZM633.736 317.886H637.029V306.251H641.52V303.293H629.245V306.251H633.736V317.886ZM619.065 311.773L621.061 307.04L623.057 311.773H619.065ZM613.177 317.886H616.47L617.867 314.632H624.155L625.552 317.886H628.945L622.658 303.195H619.664L613.177 317.886ZM602.299 317.886H612.877V314.928H605.492V303.293H602.199V317.886H602.299ZM596.011 317.689C596.81 317.393 597.508 316.999 598.107 316.506C598.706 315.914 599.105 315.224 599.404 314.435C599.704 313.646 599.903 312.66 599.903 311.576V303.293H596.61V311.674C596.61 312.857 596.311 313.745 595.812 314.336C595.213 314.928 594.514 315.224 593.516 315.224C592.518 315.224 591.72 314.928 591.221 314.336C590.622 313.745 590.422 312.857 590.422 311.674V303.392H587.129V311.773C587.129 313.942 587.728 315.52 588.826 316.604C589.923 317.689 591.52 318.182 593.516 318.182C594.315 318.083 595.213 317.985 596.011 317.689ZM581.241 317.985C581.84 317.886 582.339 317.689 582.838 317.492C583.337 317.294 583.736 316.999 584.135 316.703C584.534 316.407 584.933 316.013 585.333 315.618L583.237 313.548C582.638 314.041 582.039 314.534 581.54 314.829C580.941 315.125 580.243 315.322 579.444 315.322C578.846 315.322 578.247 315.224 577.748 314.928C577.249 314.731 576.75 314.336 576.351 313.942C575.951 313.548 575.652 313.055 575.452 312.463C575.253 311.871 575.153 311.28 575.153 310.688C575.153 310.097 575.253 309.505 575.452 308.913C575.652 308.322 575.951 307.927 576.351 307.434C576.75 307.04 577.149 306.646 577.748 306.448C578.247 306.251 578.846 306.054 579.444 306.054C580.143 306.054 580.842 306.153 581.44 306.448C582.039 306.744 582.638 307.139 583.237 307.632L585.333 305.265C585.033 304.969 584.634 304.674 584.235 304.378C583.836 304.082 583.436 303.885 582.937 303.688C582.438 303.49 581.939 303.293 581.341 303.195C580.742 303.096 580.143 302.997 579.444 302.997C578.347 302.997 577.249 303.195 576.351 303.589C575.452 303.983 574.554 304.575 573.955 305.167C573.257 305.857 572.758 306.646 572.359 307.533C571.959 308.42 571.76 309.406 571.76 310.491C571.76 311.576 571.959 312.562 572.359 313.449C572.758 314.336 573.257 315.125 573.955 315.815C574.654 316.506 575.452 316.999 576.351 317.393C577.249 317.787 578.247 317.985 579.345 317.985C580.043 318.182 580.742 318.083 581.241 317.985ZM560.183 317.886H570.762V314.928H563.377V303.293H560.083V317.886H560.183ZM548.906 311.773L550.902 307.04L552.898 311.773H548.906ZM543.117 317.886H546.411L547.808 314.632H554.095L555.492 317.886H558.886L552.598 303.195H549.604L543.117 317.886ZM538.526 317.985C539.125 317.886 539.624 317.689 540.123 317.492C540.622 317.294 541.021 316.999 541.421 316.703C541.82 316.407 542.219 316.013 542.618 315.618L540.522 313.548C539.924 314.041 539.325 314.534 538.826 314.829C538.227 315.125 537.528 315.322 536.73 315.322C536.131 315.322 535.532 315.224 535.033 314.928C534.534 314.731 534.035 314.336 533.636 313.942C533.237 313.548 532.938 313.055 532.738 312.463C532.538 311.871 532.439 311.28 532.439 310.688C532.439 310.097 532.538 309.505 532.738 308.913C532.938 308.322 533.237 307.927 533.636 307.434C534.035 307.04 534.435 306.646 535.033 306.448C535.532 306.251 536.131 306.054 536.73 306.054C537.429 306.054 538.127 306.153 538.726 306.448C539.325 306.744 539.924 307.139 540.522 307.632L542.618 305.265C542.319 304.969 541.92 304.674 541.52 304.378C541.121 304.082 540.722 303.885 540.223 303.688C539.724 303.49 539.225 303.293 538.626 303.195C538.027 303.096 537.429 302.997 536.73 302.997C535.632 302.997 534.534 303.195 533.636 303.589C532.738 303.983 531.84 304.575 531.241 305.167C530.542 305.857 530.043 306.646 529.644 307.533C529.245 308.42 529.045 309.406 529.045 310.491C529.045 311.576 529.245 312.562 529.644 313.449C530.043 314.336 530.542 315.125 531.241 315.815C531.94 316.506 532.738 316.999 533.636 317.393C534.534 317.787 535.532 317.985 536.63 317.985C537.229 318.182 537.928 318.083 538.526 317.985ZM519.664 303.293L516.471 308.026L513.377 303.293H509.584L514.475 310.491L509.285 317.886H512.978L516.271 312.857L519.564 317.886H523.357L518.167 310.392L523.057 303.293H519.664V303.293ZM497.309 317.886H508.586V315.027H500.602V311.97H507.588V309.111H500.602V306.153H508.487V303.293H497.409V317.886H497.309ZM485.034 317.886H495.612V314.928H488.227V303.293H484.934V317.886H485.034ZM475.054 310.688V306.251H477.549C478.347 306.251 479.046 306.448 479.445 306.843C479.944 307.237 480.143 307.73 480.143 308.519C480.143 309.111 479.944 309.702 479.445 310.097C478.946 310.491 478.347 310.688 477.549 310.688H475.054V310.688ZM471.86 317.886H475.153V313.548H477.648C478.447 313.548 479.245 313.449 479.944 313.252C480.642 313.055 481.341 312.759 481.84 312.266C482.339 311.871 482.838 311.28 483.137 310.688C483.437 310.097 483.636 309.308 483.636 308.42C483.636 307.632 483.537 306.941 483.237 306.35C482.938 305.758 482.638 305.167 482.139 304.772C481.64 304.279 481.042 303.983 480.343 303.786C479.644 303.589 478.846 303.392 477.948 303.392H471.96V317.886H471.86ZM454.295 317.886H457.489V308.42L461.581 314.632H461.68L465.872 308.42V317.985H469.066V303.392H465.573L461.68 309.604L457.788 303.392H454.295V317.886V317.886ZM442.619 314.829C442.12 314.632 441.621 314.238 441.221 313.843C440.822 313.449 440.523 312.956 440.323 312.364C440.124 311.773 440.024 311.181 440.024 310.59C440.024 309.998 440.124 309.406 440.323 308.815C440.523 308.223 440.822 307.829 441.221 307.336C441.621 306.843 442.12 306.547 442.619 306.35C443.118 306.153 443.716 305.955 444.415 305.955C445.014 305.955 445.613 306.054 446.211 306.35C446.81 306.646 447.209 306.941 447.609 307.336C448.008 307.73 448.307 308.223 448.507 308.815C448.706 309.406 448.806 309.998 448.806 310.59C448.806 311.181 448.706 311.773 448.507 312.364C448.307 312.956 448.008 313.35 447.609 313.843C447.209 314.238 446.71 314.632 446.211 314.829C445.712 315.027 445.114 315.224 444.415 315.224C443.816 315.125 443.217 315.027 442.619 314.829ZM447.609 317.492C448.607 317.097 449.405 316.506 450.104 315.914C450.802 315.322 451.301 314.435 451.7 313.548C452.1 312.66 452.299 311.674 452.299 310.59C452.299 309.505 452.1 308.618 451.7 307.632C451.301 306.744 450.802 305.955 450.104 305.265C449.405 304.575 448.607 304.082 447.609 303.688C446.611 303.293 445.613 303.096 444.415 303.096C443.317 303.096 442.219 303.293 441.221 303.688C440.223 304.082 439.425 304.674 438.726 305.265C438.028 305.955 437.529 306.744 437.13 307.632C436.73 308.519 436.531 309.505 436.531 310.59C436.531 311.674 436.73 312.562 437.13 313.548C437.529 314.435 438.028 315.224 438.726 315.914C439.425 316.604 440.223 317.097 441.221 317.492C442.219 317.886 443.217 318.083 444.415 318.083C445.613 318.182 446.611 317.985 447.609 317.492ZM431.341 317.985C431.94 317.886 432.439 317.689 432.938 317.492C433.437 317.294 433.836 316.999 434.235 316.703C434.635 316.407 435.034 316.013 435.433 315.618L433.337 313.548C432.738 314.041 432.14 314.534 431.641 314.829C431.042 315.125 430.343 315.322 429.545 315.322C428.946 315.322 428.347 315.224 427.848 314.928C427.349 314.731 426.85 314.336 426.451 313.942C426.052 313.548 425.752 313.055 425.553 312.463C425.353 311.871 425.253 311.28 425.253 310.688C425.253 310.097 425.353 309.505 425.553 308.913C425.752 308.322 426.052 307.927 426.451 307.434C426.85 307.04 427.249 306.646 427.848 306.448C428.347 306.251 428.946 306.054 429.545 306.054C430.243 306.054 430.942 306.153 431.541 306.448C432.14 306.744 432.738 307.139 433.337 307.632L435.433 305.265C435.134 304.969 434.734 304.674 434.335 304.378C433.936 304.082 433.537 303.885 433.038 303.688C432.539 303.49 432.04 303.293 431.441 303.195C430.842 303.096 430.243 302.997 429.545 302.997C428.447 302.997 427.349 303.195 426.451 303.589C425.553 303.983 424.655 304.575 424.056 305.167C423.357 305.857 422.858 306.646 422.459 307.533C422.06 308.42 421.86 309.406 421.86 310.491C421.86 311.576 422.06 312.562 422.459 313.449C422.858 314.336 423.357 315.125 424.056 315.815C424.754 316.506 425.553 316.999 426.451 317.393C427.349 317.787 428.347 317.985 429.445 317.985C430.144 318.182 430.842 318.083 431.341 317.985Z" fill="#1D1D1B"/>
<path d="M178.248 181.621L197.41 176.099L227.25 305.66L208.188 311.181L178.248 181.621Z" fill="#E7E7EA"/>
<path d="M193.808 96.4641L180.315 143.108L199.411 148.5L212.904 101.856L193.808 96.4641Z" fill="#E7E7EA"/>
<path d="M162.006 182.34L130.031 219.155L145.103 231.932L177.078 195.117L162.006 182.34Z" fill="#E7E7EA"/>
<path d="M86.8283 148.241L67.2521 151.544L79.7486 223.853L99.3248 220.551L86.8283 148.241Z" fill="#E7E7EA"/>
<path d="M188.628 96.6276C172.66 88.4438 160.384 77.302 156.891 58.7652C152.4 34.5096 165.873 10.9442 189.426 2.85901C212.879 -5.22619 238.528 4.83102 250.104 26.7202C251.402 29.1852 252.599 31.6502 253.697 34.1152C270.563 72.1748 300.803 92.2892 341.721 98.2052C353.597 99.8814 365.673 100.867 377.349 103.628C430.742 116.249 464.575 165.155 459.185 221.357C454.495 270.459 409.385 312.956 358.986 315.618C303.298 318.576 254.895 283.277 244.416 230.822C239.526 206.369 236.831 181.424 233.238 156.774C230.743 139.124 222.061 124.827 209.486 112.502C202.101 106.488 196.612 101.656 188.628 96.6276Z" fill="#DF6138"/>
<path d="M144.217 169.789C144.217 151.844 158.887 137.349 177.051 137.349C195.214 137.349 209.885 151.844 209.885 169.789C209.885 187.734 195.214 202.228 177.051 202.228C158.987 202.327 144.217 187.734 144.217 169.789Z" fill="#F4BE33"/>
<path d="M180.943 306.35C180.943 287.221 196.711 271.643 216.073 271.643C235.434 271.643 251.202 287.221 251.202 306.35C251.202 325.478 235.434 341.057 216.073 341.057C196.612 341.057 180.943 325.577 180.943 306.35Z" fill="#4D6198"/>
<path d="M46.1132 251.232C46.1132 222.934 69.2668 200.059 97.9094 200.059C126.552 200.059 149.706 222.934 149.706 251.232C149.706 279.531 126.552 302.406 97.9094 302.406C69.3666 302.406 46.1132 279.531 46.1132 251.232Z" fill="#8B4F95"/>
<path d="M0.504578 89.2326C0.504578 50.5814 32.241 19.3252 71.2628 19.3252C110.285 19.3252 142.021 50.68 142.021 89.2326C142.021 127.785 110.384 159.14 71.2628 159.14C32.1412 159.14 0.504578 127.785 0.504578 89.2326Z" fill="#86C342"/>
<path d="M762.777 289.292C768.565 288.109 773.955 286.334 778.845 284.066C783.735 281.798 788.226 279.038 792.318 275.784C796.41 272.53 800.402 268.882 804.194 264.839L783.336 244.035C777.547 249.359 771.659 253.599 765.771 256.655C759.883 259.712 752.697 261.29 744.214 261.29C737.827 261.29 732.039 260.106 726.649 257.641C721.36 255.176 716.769 251.824 713.077 247.683C709.284 243.443 706.39 238.612 704.294 232.991C702.198 227.371 701.101 221.455 701.101 215.145V214.75C701.101 208.44 702.198 202.524 704.294 197.002C706.39 191.481 709.384 186.649 713.176 182.41C716.969 178.17 721.56 174.916 726.849 172.55C732.138 170.183 737.927 169 744.214 169C751.699 169 758.486 170.479 764.474 173.437C770.462 176.395 776.45 180.438 782.238 185.663L803.096 161.901C799.703 158.548 796.01 155.492 792.018 152.632C788.026 149.872 783.735 147.407 779.044 145.533C774.354 143.561 769.164 142.082 763.376 140.899C757.687 139.814 751.3 139.223 744.314 139.223C732.837 139.223 722.358 141.195 712.877 145.237C703.396 149.181 695.212 154.703 688.426 161.605C681.64 168.507 676.35 176.592 672.458 185.762C668.666 194.932 666.769 204.792 666.769 215.243V215.638C666.769 226.089 668.666 236.048 672.458 245.218C676.25 254.486 681.64 262.473 688.426 269.276C695.212 276.08 703.296 281.404 712.677 285.348C722.059 289.292 732.138 291.264 743.116 291.264C750.402 291.067 756.989 290.475 762.777 289.292ZM607.987 288.503H640.322V140.505H617.967L575.253 153.125L582.039 179.55L607.987 173.24V288.503ZM524.754 289.292C530.542 288.109 535.932 286.334 540.822 284.066C545.712 281.798 550.203 279.038 554.295 275.784C558.387 272.53 562.379 268.882 566.171 264.839L545.313 244.035C539.524 249.359 533.636 253.599 527.748 256.655C521.86 259.712 514.674 261.29 506.191 261.29C499.804 261.29 494.016 260.106 488.626 257.641C483.337 255.176 478.746 251.824 475.054 247.683C471.261 243.443 468.367 238.612 466.271 232.991C464.175 227.371 463.078 221.455 463.078 215.145V214.75C463.078 208.44 464.175 202.524 466.271 197.002C468.367 191.481 471.361 186.649 475.153 182.41C478.946 178.17 483.537 174.916 488.826 172.55C494.115 170.183 499.904 169 506.191 169C513.676 169 520.463 170.479 526.451 173.437C532.439 176.395 538.427 180.438 544.215 185.663L565.073 161.901C561.68 158.548 557.987 155.492 553.995 152.632C550.003 149.872 545.712 147.407 541.021 145.533C536.331 143.561 531.141 142.082 525.353 140.899C519.664 139.814 513.277 139.223 506.291 139.223C494.814 139.223 484.335 141.195 474.854 145.237C465.373 149.181 457.189 154.703 450.403 161.605C443.617 168.507 438.327 176.592 434.435 185.762C430.643 194.932 428.746 204.792 428.746 215.243V215.638C428.746 226.089 430.643 236.048 434.435 245.218C438.227 254.486 443.617 262.473 450.403 269.276C457.189 276.08 465.273 281.404 474.654 285.348C484.036 289.292 494.115 291.264 505.093 291.264C512.379 291.067 518.866 290.475 524.754 289.292Z" fill="#1D1D1B"/>
<path d="M372.16 289.292C377.948 288.109 383.337 286.334 388.228 284.066C393.118 281.798 397.609 279.038 401.701 275.784C405.792 272.53 409.784 268.882 413.577 264.839L392.719 244.035C386.93 249.359 381.042 253.599 375.154 256.655C369.266 259.712 362.08 261.29 353.597 261.29C347.21 261.29 341.421 260.106 336.032 257.641C330.743 255.176 326.152 251.824 322.459 247.683C318.667 243.443 315.773 238.612 313.677 232.991C311.581 227.371 310.483 221.455 310.483 215.145V214.75C310.483 208.44 311.581 202.524 313.677 197.002C315.773 191.481 318.767 186.649 322.559 182.41C326.352 178.17 330.942 174.916 336.232 172.55C341.521 170.183 347.31 169 353.597 169C361.082 169 367.868 170.479 373.856 173.437C379.844 176.395 385.832 180.438 391.621 185.663L412.479 161.901C409.086 158.548 405.393 155.492 401.401 152.632C397.409 149.872 393.118 147.407 388.427 145.533C383.737 143.561 378.547 142.082 372.759 140.899C367.07 139.814 360.683 139.223 353.697 139.223C342.22 139.223 331.741 141.195 322.26 145.237C312.779 149.181 304.595 154.703 297.809 161.605C291.022 168.507 285.733 176.592 281.841 185.762C278.048 194.932 276.152 204.792 276.152 215.243V215.638C276.152 226.089 278.048 236.048 281.841 245.218C285.633 254.486 291.022 262.473 297.809 269.276C304.595 276.08 312.679 281.404 322.06 285.348C331.441 289.292 341.521 291.264 352.499 291.264C359.785 291.067 366.272 290.475 372.16 289.292Z" fill="white"/>
</svg>
