<svg width="460" height="342" viewBox="0 0 460 342" fill="none" xmlns="http://www.w3.org/2000/svg">
<path d="M178.248 181.621L197.41 176.099L227.25 305.66L208.188 311.181L178.248 181.621Z" fill="#E7E7EA"/>
<path d="M193.808 96.4641L180.315 143.108L199.411 148.5L212.904 101.856L193.808 96.4641Z" fill="#E7E7EA"/>
<path d="M162.006 182.34L130.031 219.155L145.103 231.932L177.078 195.117L162.006 182.34Z" fill="#E7E7EA"/>
<path d="M86.8283 148.241L67.2521 151.544L79.7486 223.853L99.3248 220.551L86.8283 148.241Z" fill="#E7E7EA"/>
<path d="M188.628 96.6276C172.66 88.4438 160.384 77.302 156.891 58.7652C152.4 34.5096 165.873 10.9442 189.426 2.85901C212.879 -5.22619 238.528 4.83102 250.104 26.7202C251.402 29.1852 252.599 31.6502 253.697 34.1152C270.563 72.1748 300.803 92.2892 341.721 98.2052C353.597 99.8814 365.673 100.867 377.349 103.628C430.742 116.249 464.575 165.155 459.185 221.357C454.495 270.459 409.385 312.956 358.986 315.618C303.298 318.576 254.895 283.277 244.416 230.822C239.526 206.369 236.831 181.424 233.238 156.774C230.743 139.124 222.061 124.827 209.486 112.502C202.101 106.488 196.612 101.656 188.628 96.6276Z" fill="#DF6138"/>
<path d="M144.217 169.789C144.217 151.844 158.887 137.349 177.051 137.349C195.214 137.349 209.885 151.844 209.885 169.789C209.885 187.734 195.214 202.228 177.051 202.228C158.987 202.327 144.217 187.734 144.217 169.789Z" fill="#F4BE33"/>
<path d="M180.943 306.35C180.943 287.221 196.711 271.643 216.073 271.643C235.434 271.643 251.202 287.221 251.202 306.35C251.202 325.478 235.434 341.057 216.073 341.057C196.612 341.057 180.943 325.577 180.943 306.35Z" fill="#4D6198"/>
<path d="M46.1132 251.232C46.1132 222.934 69.2668 200.059 97.9094 200.059C126.552 200.059 149.706 222.934 149.706 251.232C149.706 279.531 126.552 302.406 97.9094 302.406C69.3666 302.406 46.1132 279.531 46.1132 251.232Z" fill="#8B4F95"/>
<path d="M0.504608 89.2326C0.504608 50.5814 32.241 19.3252 71.2628 19.3252C110.285 19.3252 142.021 50.68 142.021 89.2326C142.021 127.785 110.384 159.14 71.2628 159.14C32.1412 159.14 0.504608 127.785 0.504608 89.2326Z" fill="#86C342"/>
<path d="M372.16 289.292C377.948 288.109 383.337 286.334 388.228 284.066C393.118 281.798 397.609 279.038 401.701 275.784C405.792 272.53 409.784 268.882 413.577 264.839L392.719 244.035C386.93 249.359 381.042 253.599 375.154 256.655C369.266 259.712 362.08 261.29 353.597 261.29C347.21 261.29 341.421 260.106 336.032 257.641C330.743 255.176 326.152 251.824 322.459 247.683C318.667 243.443 315.773 238.612 313.677 232.991C311.581 227.371 310.483 221.455 310.483 215.145V214.75C310.483 208.44 311.581 202.524 313.677 197.002C315.773 191.481 318.767 186.649 322.559 182.41C326.352 178.17 330.942 174.916 336.232 172.55C341.521 170.183 347.31 169 353.597 169C361.082 169 367.868 170.479 373.856 173.437C379.844 176.395 385.832 180.438 391.621 185.663L412.479 161.901C409.086 158.548 405.393 155.492 401.401 152.632C397.409 149.872 393.118 147.407 388.427 145.533C383.737 143.561 378.547 142.082 372.759 140.899C367.07 139.814 360.683 139.223 353.697 139.223C342.22 139.223 331.741 141.195 322.26 145.237C312.779 149.181 304.595 154.703 297.809 161.605C291.022 168.507 285.733 176.592 281.841 185.762C278.048 194.932 276.152 204.792 276.152 215.243V215.638C276.152 226.089 278.048 236.048 281.841 245.218C285.633 254.486 291.022 262.473 297.809 269.276C304.595 276.08 312.679 281.404 322.06 285.348C331.441 289.292 341.521 291.264 352.499 291.264C359.785 291.067 366.272 290.475 372.16 289.292Z" fill="white"/>
</svg>
