<svg width="805" height="342" viewBox="0 0 805 342" fill="none" xmlns="http://www.w3.org/2000/svg">
<path d="M178.248 181.621L197.41 176.099L227.25 305.66L208.188 311.181L178.248 181.621Z" fill="#E7E7EA"/>
<path d="M193.808 96.4641L180.315 143.108L199.411 148.5L212.904 101.856L193.808 96.4641Z" fill="#E7E7EA"/>
<path d="M162.006 182.34L130.031 219.155L145.103 231.932L177.078 195.117L162.006 182.34Z" fill="#E7E7EA"/>
<path d="M86.8283 148.241L67.2521 151.544L79.7486 223.853L99.3248 220.551L86.8283 148.241Z" fill="#E7E7EA"/>
<path d="M188.628 96.6276C172.66 88.4438 160.384 77.302 156.891 58.7652C152.4 34.5096 165.873 10.9442 189.426 2.85901C212.879 -5.22619 238.528 4.83102 250.104 26.7202C251.402 29.1852 252.599 31.6502 253.697 34.1152C270.563 72.1748 300.803 92.2892 341.721 98.2052C353.597 99.8814 365.673 100.867 377.349 103.628C430.742 116.249 464.575 165.155 459.185 221.357C454.495 270.459 409.385 312.956 358.986 315.618C303.298 318.576 254.895 283.277 244.416 230.822C239.526 206.369 236.831 181.424 233.238 156.774C230.743 139.124 222.061 124.827 209.486 112.502C202.101 106.488 196.612 101.656 188.628 96.6276Z" fill="#DF6138"/>
<path d="M144.217 169.789C144.217 151.844 158.887 137.349 177.051 137.349C195.214 137.349 209.885 151.844 209.885 169.789C209.885 187.734 195.214 202.228 177.051 202.228C158.987 202.327 144.217 187.734 144.217 169.789Z" fill="#F4BE33"/>
<path d="M180.943 306.35C180.943 287.221 196.711 271.643 216.073 271.643C235.434 271.643 251.202 287.221 251.202 306.35C251.202 325.478 235.434 341.057 216.073 341.057C196.612 341.057 180.943 325.577 180.943 306.35Z" fill="#4D6198"/>
<path d="M46.1132 251.232C46.1132 222.934 69.2668 200.059 97.9094 200.059C126.552 200.059 149.706 222.934 149.706 251.232C149.706 279.531 126.552 302.406 97.9094 302.406C69.3666 302.406 46.1132 279.531 46.1132 251.232Z" fill="#8B4F95"/>
<path d="M0.504578 89.2326C0.504578 50.5814 32.241 19.3252 71.2628 19.3252C110.285 19.3252 142.021 50.68 142.021 89.2326C142.021 127.785 110.384 159.14 71.2628 159.14C32.1412 159.14 0.504578 127.785 0.504578 89.2326Z" fill="#86C342"/>
<path d="M762.777 289.292C768.565 288.109 773.955 286.334 778.845 284.066C783.735 281.798 788.226 279.038 792.318 275.784C796.41 272.53 800.402 268.882 804.194 264.839L783.336 244.035C777.547 249.359 771.659 253.599 765.771 256.655C759.883 259.712 752.697 261.29 744.214 261.29C737.827 261.29 732.039 260.106 726.649 257.641C721.36 255.176 716.769 251.824 713.077 247.683C709.284 243.443 706.39 238.612 704.294 232.991C702.198 227.371 701.101 221.455 701.101 215.145V214.75C701.101 208.44 702.198 202.524 704.294 197.002C706.39 191.481 709.384 186.649 713.176 182.41C716.969 178.17 721.56 174.916 726.849 172.55C732.138 170.183 737.927 169 744.214 169C751.699 169 758.486 170.479 764.474 173.437C770.462 176.395 776.45 180.438 782.238 185.663L803.096 161.901C799.703 158.548 796.01 155.492 792.018 152.632C788.026 149.872 783.735 147.407 779.044 145.533C774.354 143.561 769.164 142.082 763.376 140.899C757.687 139.814 751.3 139.223 744.314 139.223C732.837 139.223 722.358 141.195 712.877 145.237C703.396 149.181 695.212 154.703 688.426 161.605C681.64 168.507 676.35 176.592 672.458 185.762C668.666 194.932 666.769 204.792 666.769 215.243V215.638C666.769 226.089 668.666 236.048 672.458 245.218C676.25 254.486 681.64 262.473 688.426 269.276C695.212 276.08 703.296 281.404 712.677 285.348C722.059 289.292 732.138 291.264 743.116 291.264C750.402 291.067 756.989 290.475 762.777 289.292ZM607.987 288.503H640.322V140.505H617.967L575.253 153.125L582.039 179.55L607.987 173.24V288.503ZM524.754 289.292C530.542 288.109 535.932 286.334 540.822 284.066C545.712 281.798 550.203 279.038 554.295 275.784C558.387 272.53 562.379 268.882 566.171 264.839L545.313 244.035C539.524 249.359 533.636 253.599 527.748 256.655C521.86 259.712 514.674 261.29 506.191 261.29C499.804 261.29 494.016 260.106 488.626 257.641C483.337 255.176 478.746 251.824 475.054 247.683C471.261 243.443 468.367 238.612 466.271 232.991C464.175 227.371 463.078 221.455 463.078 215.145V214.75C463.078 208.44 464.175 202.524 466.271 197.002C468.367 191.481 471.361 186.649 475.153 182.41C478.946 178.17 483.537 174.916 488.826 172.55C494.115 170.183 499.904 169 506.191 169C513.676 169 520.463 170.479 526.451 173.437C532.439 176.395 538.427 180.438 544.215 185.663L565.073 161.901C561.68 158.548 557.987 155.492 553.995 152.632C550.003 149.872 545.712 147.407 541.021 145.533C536.331 143.561 531.141 142.082 525.353 140.899C519.664 139.814 513.277 139.223 506.291 139.223C494.814 139.223 484.335 141.195 474.854 145.237C465.373 149.181 457.189 154.703 450.403 161.605C443.617 168.507 438.327 176.592 434.435 185.762C430.643 194.932 428.746 204.792 428.746 215.243V215.638C428.746 226.089 430.643 236.048 434.435 245.218C438.227 254.486 443.617 262.473 450.403 269.276C457.189 276.08 465.273 281.404 474.654 285.348C484.036 289.292 494.115 291.264 505.093 291.264C512.379 291.067 518.866 290.475 524.754 289.292Z" fill="#1D1D1B"/>
<path d="M372.16 289.292C377.948 288.109 383.337 286.334 388.228 284.066C393.118 281.798 397.609 279.038 401.701 275.784C405.792 272.53 409.784 268.882 413.577 264.839L392.719 244.035C386.93 249.359 381.042 253.599 375.154 256.655C369.266 259.712 362.08 261.29 353.597 261.29C347.21 261.29 341.421 260.106 336.032 257.641C330.743 255.176 326.152 251.824 322.459 247.683C318.667 243.443 315.773 238.612 313.677 232.991C311.581 227.371 310.483 221.455 310.483 215.145V214.75C310.483 208.44 311.581 202.524 313.677 197.002C315.773 191.481 318.767 186.649 322.559 182.41C326.352 178.17 330.942 174.916 336.232 172.55C341.521 170.183 347.31 169 353.597 169C361.082 169 367.868 170.479 373.856 173.437C379.844 176.395 385.832 180.438 391.621 185.663L412.479 161.901C409.086 158.548 405.393 155.492 401.401 152.632C397.409 149.872 393.118 147.407 388.427 145.533C383.737 143.561 378.547 142.082 372.759 140.899C367.07 139.814 360.683 139.223 353.697 139.223C342.22 139.223 331.741 141.195 322.26 145.237C312.779 149.181 304.595 154.703 297.809 161.605C291.022 168.507 285.733 176.592 281.841 185.762C278.048 194.932 276.152 204.792 276.152 215.243V215.638C276.152 226.089 278.048 236.048 281.841 245.218C285.633 254.486 291.022 262.473 297.809 269.276C304.595 276.08 312.679 281.404 322.06 285.348C331.441 289.292 341.521 291.264 352.499 291.264C359.785 291.067 366.272 290.475 372.16 289.292Z" fill="white"/>
</svg>
