<svg width="631" height="117" viewBox="0 0 631 117" fill="none" xmlns="http://www.w3.org/2000/svg">
<path d="M185.08 66.58C185.069 58.6824 188.195 51.1038 193.77 45.51C195.558 43.7073 197.575 42.1473 199.77 40.87C202.001 39.5745 204.386 38.5665 206.87 37.87C212.043 36.4436 217.506 36.4436 222.68 37.87C225.168 38.5628 227.558 39.571 229.79 40.87C234.22 43.4431 237.901 47.1279 240.47 51.56C241.766 53.7941 242.774 56.1831 243.47 58.67C244.189 61.2449 244.549 63.9067 244.54 66.58C244.571 73.2862 242.341 79.8073 238.21 85.09C236.228 87.6216 233.835 89.8021 231.13 91.54C228.377 93.3234 225.33 94.6064 222.13 95.33V105.86C222.13 107 221.51 107.57 220.26 107.57H208.82C208.588 107.604 208.351 107.582 208.128 107.508C207.905 107.434 207.703 107.309 207.537 107.143C207.371 106.977 207.246 106.775 207.172 106.552C207.098 106.329 207.076 106.092 207.11 105.86V95.25C203.957 94.5026 200.958 93.2098 198.25 91.43C195.578 89.6832 193.213 87.5073 191.25 84.99C189.275 82.4361 187.735 79.5745 186.69 76.52C185.597 73.321 185.053 69.9604 185.08 66.58V66.58ZM200.08 66.58C200.069 68.6302 200.439 70.6645 201.17 72.58C201.857 74.3909 202.893 76.049 204.22 77.46C205.529 78.8459 207.104 79.9545 208.85 80.72C210.721 81.5055 212.73 81.9101 214.76 81.9101C216.789 81.9101 218.799 81.5055 220.67 80.72C222.427 79.9575 224.011 78.8487 225.33 77.46C226.653 76.0465 227.689 74.3891 228.38 72.58C229.813 68.7083 229.813 64.4517 228.38 60.58C227.69 58.7619 226.654 57.0946 225.33 55.67C223.978 54.2242 222.344 53.0716 220.528 52.2835C218.712 51.4955 216.754 51.0889 214.775 51.0889C212.796 51.0889 210.837 51.4955 209.022 52.2835C207.206 53.0716 205.572 54.2242 204.22 55.67C202.893 57.0919 201.856 58.7599 201.17 60.58C200.455 62.4852 200.096 64.5053 200.11 66.54L200.08 66.58Z" fill="black"/>
<path d="M298.23 94.71C297.93 94.9812 297.565 95.1706 297.17 95.26C296.818 95.3337 296.459 95.3706 296.1 95.37H290.23C289.816 95.3835 289.404 95.2978 289.03 95.12C288.697 94.9597 288.403 94.7275 288.17 94.44C287.926 94.1388 287.73 93.8014 287.59 93.44C287.429 93.0783 287.298 92.7036 287.2 92.32L286.38 88.52C285.882 89.4703 285.226 90.3292 284.44 91.06C283.432 92.0229 282.302 92.8499 281.08 93.52C279.622 94.3193 278.074 94.9436 276.47 95.38C274.623 95.8871 272.715 96.1362 270.8 96.12C268.085 96.1728 265.397 95.587 262.95 94.41C260.706 93.2974 258.736 91.7027 257.18 89.74C255.567 87.6898 254.359 85.3516 253.62 82.85C252.805 80.1182 252.401 77.2806 252.42 74.43V49C252.361 48.2042 252.588 47.4134 253.06 46.77C253.317 46.5043 253.63 46.2985 253.975 46.1672C254.321 46.0359 254.691 45.9822 255.06 46.01H264.06C264.865 45.9262 265.674 46.1241 266.35 46.57C266.839 47.1928 267.062 47.9836 266.97 48.77V74.1C266.968 75.1922 267.185 76.2737 267.61 77.28C268.028 78.2542 268.614 79.1478 269.34 79.92C270.064 80.6838 270.93 81.2987 271.89 81.73C272.86 82.1702 273.914 82.3954 274.98 82.39C275.997 82.3758 277.007 82.2176 277.98 81.92C279.055 81.6105 280.07 81.1202 280.98 80.47C281.925 79.7906 282.718 78.9222 283.31 77.92C283.955 76.7814 284.277 75.4881 284.24 74.18V48.9C284.243 48.4443 284.331 47.9933 284.5 47.57C284.643 47.1686 284.905 46.8199 285.25 46.57C285.56 46.3769 285.897 46.232 286.25 46.14C286.578 46.0657 286.914 46.0287 287.25 46.03H296.03C296.446 45.9625 296.872 45.9922 297.274 46.1168C297.677 46.2413 298.045 46.4573 298.35 46.7479C298.655 47.0384 298.889 47.3956 299.033 47.7916C299.177 48.1875 299.227 48.6113 299.18 49.03V92.5C299.179 92.973 299.066 93.439 298.85 93.86C298.64 94.271 298.322 94.6168 297.93 94.86L298.23 94.71Z" fill="black"/>
<path d="M308.53 29.39C308.45 28.5548 308.702 27.7217 309.23 27.07C309.839 26.5648 310.622 26.3204 311.41 26.39H320.41C321.2 26.3539 321.978 26.5944 322.61 27.07C322.914 27.3696 323.146 27.7337 323.29 28.1353C323.433 28.5369 323.485 28.9658 323.44 29.39V37C323.432 37.3434 323.361 37.6823 323.23 38C323.08 38.3609 322.878 38.6978 322.63 39C322.37 39.3384 322.048 39.6236 321.68 39.84C321.294 40.062 320.855 40.176 320.41 40.17H311.41C309.49 40.17 308.53 39.0933 308.53 36.94V29.39ZM308.53 49.05C308.515 48.2781 308.762 47.5239 309.23 46.91C309.498 46.6012 309.835 46.3598 310.214 46.2052C310.593 46.0506 311.002 45.9872 311.41 46.02H320.31C320.653 46.0292 320.992 46.1004 321.31 46.23C321.676 46.3777 322.015 46.5875 322.31 46.85C322.626 47.1378 322.893 47.4756 323.1 47.85C323.324 48.2241 323.439 48.6539 323.43 49.09V92.42C323.46 92.8278 323.403 93.2373 323.263 93.6216C323.124 94.0059 322.905 94.3564 322.62 94.65C321.97 95.194 321.136 95.4662 320.29 95.41H311.39C309.47 95.41 308.51 94.41 308.51 92.41L308.53 49.05Z" fill="black"/>
<path d="M364.37 80.18C364.668 79.9536 365.008 79.7872 365.37 79.69C365.62 79.6365 365.874 79.603 366.13 79.59C366.55 79.5842 366.965 79.6803 367.34 79.87C367.804 80.1571 368.189 80.5559 368.46 81.03L372.81 87.6C372.951 87.8234 373.075 88.0574 373.18 88.3C373.282 88.492 373.344 88.7031 373.36 88.92C373.369 89.1885 373.325 89.4562 373.229 89.707C373.132 89.9578 372.987 90.1867 372.8 90.38C372.423 90.7517 372.011 91.0865 371.57 91.38C369.407 92.8729 367.052 94.067 364.57 94.93C362 95.8333 359.294 96.2866 356.57 96.27C352.08 96.2904 347.666 95.1059 343.79 92.84C341.921 91.7244 340.198 90.3807 338.66 88.84C337.1 87.3119 335.755 85.5795 334.66 83.69C333.559 81.7652 332.705 79.7089 332.12 77.57C331.502 75.336 331.192 73.0279 331.2 70.71C331.198 66.1489 332.391 61.6669 334.66 57.71C335.762 55.8319 337.107 54.1071 338.66 52.58C341.014 50.2347 343.808 48.3772 346.881 47.1142C349.955 45.8512 353.247 45.2075 356.57 45.22C359.222 45.1963 361.863 45.5774 364.4 46.35C366.808 47.1022 369.083 48.2293 371.14 49.69L371.03 49.57C371.558 49.8715 372.021 50.2762 372.39 50.76C372.736 51.2542 372.911 51.8474 372.89 52.45C372.875 52.9637 372.716 53.4629 372.43 53.89L369 59.77C368.778 60.3001 368.414 60.7587 367.948 61.0956C367.482 61.4326 366.933 61.6347 366.36 61.68C366.065 61.6685 365.775 61.6076 365.5 61.5C365.097 61.3551 364.716 61.153 364.37 60.9C363.224 60.1429 361.992 59.5252 360.7 59.06C359.36 58.5737 357.945 58.3299 356.52 58.34C354.963 58.3266 353.424 58.6686 352.02 59.34C350.668 59.9796 349.468 60.9 348.5 62.04C347.506 63.2238 346.736 64.5795 346.23 66.04C345.136 69.126 345.136 72.494 346.23 75.58C346.732 77.0032 347.503 78.3169 348.5 79.45C349.507 80.5716 350.741 81.4662 352.121 82.0748C353.5 82.6834 354.993 82.9919 356.5 82.98C357.923 82.9949 359.336 82.7334 360.66 82.21C361.969 81.6755 363.214 80.9945 364.37 80.18V80.18Z" fill="black"/>
<path d="M380.77 34.32C380.77 33.88 380.77 33.48 380.77 33.12C380.789 32.7819 380.904 32.456 381.1 32.18C381.335 31.8917 381.652 31.6823 382.01 31.58C382.579 31.4203 383.169 31.3495 383.76 31.37H393.05C393.471 31.3533 393.89 31.4391 394.27 31.62C394.577 31.7691 394.844 31.9884 395.05 32.26C395.244 32.5056 395.377 32.7934 395.44 33.1C395.5 33.3727 395.534 33.6507 395.54 33.93V62.69L409.54 47.14C409.837 46.7766 410.213 46.4853 410.639 46.2878C411.065 46.0904 411.53 45.992 412 46H423.93C425.35 46 426.06 46.55 426.06 47.67C426.07 47.9102 426.026 48.1495 425.93 48.37C425.769 48.6498 425.578 48.9113 425.36 49.15L409.36 66.01L429.45 91.81H429.37C429.674 92.0922 429.919 92.4321 430.09 92.81C430.233 93.1241 430.308 93.4649 430.31 93.81C430.338 94.0382 430.308 94.2698 430.222 94.4832C430.137 94.6965 429.998 94.8847 429.82 95.03C429.379 95.2794 428.875 95.3941 428.37 95.36H415.24C414.78 95.35 414.339 95.1722 414 94.86C413.512 94.4051 413.08 93.895 412.71 93.34L400.01 75.34L395.69 79.81V92.36C395.683 92.6321 395.653 92.9031 395.6 93.17C395.527 93.523 395.396 93.8611 395.21 94.17C395.008 94.5055 394.735 94.7923 394.41 95.01C394.015 95.2571 393.555 95.379 393.09 95.36H383.34C382.907 95.3709 382.483 95.241 382.13 94.99C381.812 94.7677 381.54 94.4858 381.33 94.16C381.159 93.8824 381.018 93.5874 380.91 93.28C380.85 93.1243 380.803 92.9637 380.77 92.8V34.32Z" fill="black"/>
<path d="M481.3 41.86C481.726 42.0858 482.074 42.4342 482.3 42.86C482.401 43.0976 482.444 43.3559 482.424 43.6133C482.405 43.8708 482.325 44.1199 482.19 44.34L475.62 53.66C475.526 53.8405 475.397 54.0006 475.241 54.1311C475.085 54.2615 474.904 54.3598 474.71 54.42C474.286 54.4661 473.86 54.348 473.52 54.09C472.25 53.1286 470.831 52.382 469.32 51.88C467.758 51.3535 466.119 51.0899 464.47 51.1C462.501 51.0711 460.548 51.4578 458.739 52.2349C456.93 53.012 455.304 54.1621 453.97 55.61C452.674 57.039 451.657 58.6974 450.97 60.5C450.24 62.4156 449.874 64.4503 449.89 66.5C449.869 68.5501 450.236 70.5857 450.97 72.5C451.657 74.2934 452.675 75.9419 453.97 77.36C455.315 78.7934 456.942 79.9325 458.749 80.7053C460.557 81.4781 462.504 81.8679 464.47 81.85C467.758 81.8637 470.961 80.8111 473.6 78.85C473.933 78.5997 474.344 78.4757 474.76 78.5C475.152 78.6033 475.489 78.8541 475.7 79.2L482.34 88.76C482.478 88.9694 482.561 89.2099 482.582 89.4597C482.603 89.7095 482.561 89.9606 482.46 90.19C482.228 90.6116 481.882 90.9585 481.46 91.19C479.029 92.8165 476.379 94.0892 473.59 94.97C470.718 95.8762 467.722 96.3283 464.71 96.31C460.81 96.3228 456.946 95.5622 453.341 94.0723C449.736 92.5825 446.463 90.3928 443.71 87.63C441.911 85.8356 440.349 83.8194 439.06 81.63C437.073 78.2018 435.785 74.4139 435.27 70.4851C434.755 66.5564 435.024 62.5645 436.06 58.74C437.429 53.768 440.061 49.2347 443.7 45.58C445.488 43.7773 447.505 42.2173 449.7 40.94C451.927 39.6446 454.309 38.6365 456.79 37.94C459.364 37.2169 462.026 36.8567 464.7 36.87C467.683 36.8496 470.651 37.2881 473.5 38.17C476.263 39.021 478.89 40.2636 481.3 41.86Z" fill="black"/>
<path d="M531.78 89.46C529.529 91.5429 526.925 93.2088 524.09 94.38C521.217 95.5645 518.137 96.1661 515.03 96.15C508.187 96.1705 501.601 93.544 496.65 88.82C494.256 86.5103 492.331 83.7599 490.98 80.72C489.563 77.5291 488.847 74.0713 488.88 70.58C488.876 68.3438 489.155 66.1162 489.71 63.95C490.249 61.8583 491.049 59.8425 492.09 57.95C493.109 56.0816 494.363 54.3509 495.82 52.8C497.267 51.2499 498.919 49.9042 500.73 48.8C504.527 46.4637 508.902 45.2375 513.36 45.26C515.476 45.2573 517.583 45.5467 519.62 46.12C523.61 47.2305 527.249 49.3443 530.19 52.26C531.644 53.6825 532.923 55.2738 534 57C535.059 58.7202 535.887 60.5729 536.46 62.51C537.049 64.4725 537.346 66.511 537.34 68.56C537.34 69.9 537.34 71.01 537.28 71.86C537.273 72.5699 537.065 73.2633 536.68 73.86C536.227 74.4216 535.582 74.7956 534.87 74.91C533.647 75.1346 532.403 75.2318 531.16 75.2H503.16C503.352 76.69 503.89 78.1144 504.73 79.36C505.464 80.4144 506.394 81.3176 507.47 82.02C508.489 82.67 509.607 83.1497 510.78 83.44C511.859 83.713 512.967 83.8573 514.08 83.87C515.047 83.8646 516.011 83.7675 516.96 83.58C517.926 83.3837 518.878 83.1232 519.81 82.8C520.683 82.4936 521.529 82.1157 522.34 81.67C523.012 81.3104 523.631 80.8594 524.18 80.33C524.516 80.0485 524.874 79.7944 525.25 79.57C525.554 79.3961 525.9 79.3096 526.25 79.32C526.61 79.3378 526.957 79.4594 527.25 79.67C527.679 79.9635 528.077 80.2984 528.44 80.67L532.56 85.33C532.804 85.5944 532.988 85.9082 533.1 86.25C533.18 86.5195 533.22 86.799 533.22 87.08C533.234 87.5627 533.082 88.0357 532.79 88.42C532.511 88.8188 532.17 89.1699 531.78 89.46V89.46ZM513.09 57.09C512.082 57.0876 511.084 57.2954 510.16 57.7C509.197 58.1046 508.297 58.6469 507.49 59.31C506.661 59.9844 505.912 60.7529 505.26 61.6C504.63 62.4053 504.09 63.2772 503.65 64.2H523.5C522.982 63.2282 522.394 62.2956 521.74 61.41C521.115 60.5644 520.383 59.8046 519.56 59.15C518.72 58.4899 517.773 57.9792 516.76 57.64C515.577 57.2502 514.336 57.0642 513.09 57.09V57.09Z" fill="black"/>
<path d="M545.46 34.32C545.437 33.5717 545.654 32.8357 546.08 32.22C546.341 31.9158 546.673 31.6796 547.045 31.5316C547.418 31.3835 547.821 31.3281 548.22 31.37H557.74C558.023 31.3758 558.3 31.4477 558.55 31.58C558.852 31.7278 559.123 31.9314 559.35 32.18C559.608 32.456 559.818 32.7738 559.97 33.12C560.145 33.4956 560.234 33.9056 560.23 34.32V92.38C560.26 92.7904 560.2 93.2023 560.055 93.5874C559.91 93.9724 559.683 94.3213 559.39 94.61C558.794 95.1315 558.021 95.4037 557.23 95.37H548.23C547.839 95.4113 547.444 95.3644 547.074 95.2329C546.703 95.1014 546.367 94.8885 546.09 94.61C545.634 93.9595 545.415 93.1724 545.47 92.38L545.46 34.32Z" fill="black"/>
<path d="M569.55 34.32C569.527 33.5717 569.744 32.8357 570.17 32.22C570.431 31.9158 570.763 31.6796 571.135 31.5316C571.508 31.3835 571.911 31.3281 572.31 31.37H581.83C582.116 31.3767 582.396 31.4486 582.65 31.58C582.949 31.7328 583.219 31.9358 583.45 32.18C583.705 32.4586 583.914 32.7758 584.07 33.12C584.237 33.4979 584.322 33.9069 584.32 34.32V92.38C584.35 92.7904 584.29 93.2023 584.145 93.5874C584 93.9724 583.773 94.3213 583.48 94.61C582.891 95.1364 582.119 95.4095 581.33 95.37H572.33C571.939 95.4113 571.544 95.3644 571.174 95.2329C570.803 95.1014 570.467 94.8885 570.19 94.61C569.734 93.9595 569.515 93.1724 569.57 92.38L569.55 34.32Z" fill="black"/>
<path d="M601 80C601.68 80.6827 602.442 81.2774 603.27 81.77C604.021 82.2186 604.807 82.6065 605.62 82.93C606.269 83.1977 606.938 83.415 607.62 83.58C608.003 83.6794 608.395 83.743 608.79 83.77C609.283 83.77 609.913 83.75 610.68 83.71C611.421 83.6764 612.156 83.559 612.87 83.36C613.538 83.1847 614.157 82.8598 614.68 82.41C614.937 82.1739 615.139 81.8837 615.27 81.5604C615.401 81.237 615.459 80.8885 615.44 80.54C615.468 79.9369 615.319 79.3388 615.01 78.82C614.69 78.363 614.264 77.9893 613.77 77.73C613.134 77.393 612.463 77.1248 611.77 76.93C610.98 76.7 610.1 76.43 609.11 76.11C606.426 75.4527 603.84 74.444 601.42 73.11C599.597 72.1116 597.97 70.7901 596.62 69.21C595.483 67.8481 594.642 66.2645 594.15 64.56C593.674 62.8543 593.439 61.0907 593.45 59.32C593.424 57.2914 593.862 55.2838 594.73 53.45C595.594 51.6843 596.845 50.136 598.39 48.92C600.083 47.6065 602.006 46.6196 604.06 46.01C606.442 45.3061 608.917 44.9689 611.4 45.01C612.94 44.998 614.477 45.1353 615.99 45.42C617.396 45.6823 618.766 46.112 620.07 46.7C621.413 47.3065 622.684 48.0612 623.86 48.95C625.171 49.9452 626.398 51.0455 627.53 52.24C627.917 52.6307 628.157 53.1428 628.21 53.69C628.181 53.9823 628.088 54.2647 627.938 54.517C627.787 54.7693 627.583 54.9854 627.34 55.15C626.34 55.98 625.34 56.8 624.44 57.6C623.54 58.4 622.57 59.29 621.59 60.28C621.32 60.5159 620.998 60.6838 620.65 60.77C620.357 60.8368 620.053 60.8368 619.76 60.77C619.466 60.6876 619.189 60.5557 618.94 60.38C618.676 60.1948 618.44 59.9725 618.24 59.72C617.411 58.7752 616.334 58.0822 615.13 57.72C614.075 57.3853 612.977 57.2068 611.87 57.19C610.83 57.146 609.796 57.3734 608.87 57.85C608.514 58.0387 608.223 58.3307 608.036 58.6876C607.848 59.0444 607.773 59.4496 607.82 59.85C607.828 60.1521 607.9 60.4491 608.031 60.7214C608.162 60.9937 608.349 61.2352 608.58 61.43C609.079 61.8292 609.644 62.1373 610.25 62.34C610.935 62.5784 611.637 62.7656 612.35 62.9C613.09 63.05 613.77 63.21 614.35 63.39C616.531 64.0841 618.672 64.9021 620.76 65.84C622.6 66.6536 624.304 67.7464 625.81 69.08C627.233 70.3619 628.365 71.9339 629.13 73.69C629.977 75.7601 630.382 77.9842 630.32 80.22C630.362 82.6001 629.834 84.9558 628.78 87.09C627.786 89.0874 626.346 90.829 624.57 92.18C622.665 93.6175 620.508 94.6859 618.21 95.33C615.644 96.0755 612.982 96.4427 610.31 96.42C608.667 96.4187 607.028 96.2748 605.41 95.99C603.757 95.711 602.14 95.2481 600.59 94.61C599.025 93.9692 597.538 93.1505 596.16 92.17C594.741 91.1512 593.483 89.924 592.43 88.53C592.156 88.1877 591.939 87.8025 591.79 87.39C591.651 87.0093 591.586 86.6052 591.6 86.2C591.608 85.8319 591.686 85.4687 591.83 85.13C591.98 84.7984 592.214 84.5121 592.51 84.3L597.51 79.3C597.715 79.0758 597.975 78.9084 598.264 78.8138C598.553 78.7192 598.862 78.7007 599.16 78.76C599.851 79.0435 600.478 79.4655 601 80V80Z" fill="black"/>
<path d="M0 33.19V51.38H32.13V42.38C32.13 39.7438 33.1772 37.2155 35.0414 35.3514C36.9055 33.4873 39.4338 32.44 42.07 32.44H51.12V0.27002H32.92C24.1891 0.27002 15.8157 3.73837 9.64204 9.91206C3.46835 16.0858 0 24.4591 0 33.19V33.19Z" fill="#006837"/>
<path d="M86.17 42.34V51.34H118.3V33.19C118.295 24.459 114.823 16.0872 108.649 9.91438C102.474 3.74155 94.101 0.272669 85.37 0.27002H67.18V32.4H76.18C77.4862 32.3921 78.7811 32.6417 79.9908 33.1346C81.2004 33.6275 82.3011 34.3539 83.2298 35.2724C84.1585 36.1909 84.8971 37.2835 85.4033 38.4876C85.9095 39.6917 86.1734 40.9838 86.18 42.29L86.17 42.34Z" fill="#006837"/>
<path d="M32.13 74.31V65.26H0V83.45C0 92.1809 3.46835 100.554 9.64204 106.728C15.8157 112.902 24.1891 116.37 32.92 116.37H51.12V84.24H42.07C39.4355 84.24 36.9087 83.1941 35.0449 81.3322C33.1811 79.4702 32.1327 76.9445 32.13 74.31Z" fill="#006837"/>
<path d="M118.3 84.47V65.26H86.17V74.31C86.1674 76.9445 85.119 79.4702 83.2551 81.3322C81.3913 83.1941 78.8645 84.24 76.23 84.24H67.23L67.16 116.37L117.16 116.6C125.682 116.635 133.87 113.283 139.921 107.282C145.973 101.281 149.393 93.1223 149.43 84.6L118.3 84.47Z" fill="#00C112"/>
<path opacity="0.21" d="M42.43 32.76H51.43V0.630005H48C30.25 4.84 32.53 44.7 32.53 44.7V42.7C32.53 40.0707 33.5717 37.5484 35.4272 35.6855C37.2827 33.8225 39.8007 32.7706 42.43 32.76V32.76Z" fill="url(#paint0_linear)"/>
<path opacity="0.21" d="M85.8 42V51H117.93V47.5C113.72 29.74 73.86 32 73.86 32H75.86C78.4962 32 81.0245 33.0472 82.8886 34.9113C84.7527 36.7755 85.8 39.3037 85.8 41.94V42Z" fill="url(#paint1_linear)"/>
<path opacity="0.21" d="M32.49 74.67V65.62H0.369995V69.14C4.56999 86.9 44.44 84.61 44.44 84.61H42.44C41.1347 84.6113 39.8418 84.3555 38.6354 83.8572C37.4289 83.3589 36.3324 82.6278 35.4084 81.7057C34.4845 80.7836 33.7512 79.6886 33.2505 78.4831C32.7497 77.2776 32.4913 75.9853 32.49 74.68V74.67Z" fill="url(#paint2_linear)"/>
<path opacity="0.21" d="M75.86 84.61H66.86V116.74H70.37C88.13 112.53 85.84 72.67 85.84 72.67V74.67C85.84 77.3063 84.7927 79.8346 82.9286 81.6987C81.0645 83.5628 78.5362 84.61 75.9 84.61H75.86Z" fill="url(#paint3_linear)"/>
<defs>
<linearGradient id="paint0_linear" x1="29.94" y1="23.94" x2="53.98" y2="20.99" gradientUnits="userSpaceOnUse">
<stop/>
<stop offset="1" stop-opacity="0"/>
</linearGradient>
<linearGradient id="paint1_linear" x1="-1112.01" y1="15570.7" x2="-786.314" y2="16575.1" gradientUnits="userSpaceOnUse">
<stop/>
<stop offset="1" stop-opacity="0"/>
</linearGradient>
<linearGradient id="paint2_linear" x1="-9710.84" y1="-25860.5" x2="-9174.43" y2="-26358.6" gradientUnits="userSpaceOnUse">
<stop/>
<stop offset="1" stop-opacity="0"/>
</linearGradient>
<linearGradient id="paint3_linear" x1="64.65" y1="89.97" x2="84.48" y2="97.99" gradientUnits="userSpaceOnUse">
<stop stop-color="#39B54A"/>
<stop offset="1" stop-color="#006837"/>
</linearGradient>
</defs>
</svg>
