<svg width="34" height="34" viewBox="0 0 34 34" fill="none" xmlns="http://www.w3.org/2000/svg">
<path d="M25.9386 0.134796H8.02934C5.93742 0.140824 3.9329 0.974506 2.45369 2.45372C0.974476 3.93294 0.140793 5.93745 0.134766 8.02937V25.9387C0.140793 28.0306 0.974476 30.0351 2.45369 31.5143C3.9329 32.9935 5.93742 33.8272 8.02934 33.8332H25.9386C28.0305 33.8272 30.0351 32.9935 31.5143 31.5143C32.9935 30.0351 33.8272 28.0306 33.8332 25.9387V8.02937C33.8272 5.93745 32.9935 3.93294 31.5143 2.45372C30.0351 0.974506 28.0305 0.140824 25.9386 0.134796ZM28.0405 5.9275C28.319 6.20219 28.5403 6.5294 28.6914 6.89019C28.8426 7.25098 28.9207 7.63818 28.9212 8.02937V10.073H14.4138V5.04677H25.9386C26.3298 5.04727 26.717 5.12537 27.0778 5.27655C27.4386 5.42773 27.7658 5.64898 28.0405 5.9275ZM5.92747 28.0405C5.64895 27.7658 5.4277 27.4386 5.27652 27.0778C5.12534 26.717 5.04724 26.3298 5.04674 25.9387V8.02937C5.05331 7.24036 5.36965 6.48554 5.92758 5.92761C6.48551 5.36968 7.24033 5.05334 8.02934 5.04677H9.95871V28.9212H8.02934C7.63815 28.9207 7.25095 28.8426 6.89016 28.6915C6.52937 28.5403 6.20216 28.319 5.92747 28.0405ZM28.0405 28.0405C27.7658 28.319 27.4386 28.5403 27.0778 28.6915C26.717 28.8426 26.3298 28.9207 25.9386 28.9212H14.4138V14.528H28.9212V25.9387C28.9207 26.3298 28.8426 26.717 28.6914 27.0778C28.5403 27.4386 28.319 27.7658 28.0405 28.0405Z" fill="#C4C4C4"/>
</svg>
