<svg width="31" height="31" viewBox="0 0 31 31" fill="none" xmlns="http://www.w3.org/2000/svg">
<path fill-rule="evenodd" clip-rule="evenodd" d="M15.7541 0C14.0701 0 12.7049 1.36516 12.7049 3.04918V12.7049H3.04918C1.36516 12.7049 0 14.0701 0 15.7541C0 17.4381 1.36516 18.8033 3.04918 18.8033H12.7049V27.9508C12.7049 29.6348 14.0701 31 15.7541 31C17.4381 31 18.8033 29.6348 18.8033 27.9508V18.8033H27.9508C29.6348 18.8033 31 17.4381 31 15.7541C31 14.0701 29.6348 12.7049 27.9508 12.7049H18.8033V3.04918C18.8033 1.36516 17.4381 0 15.7541 0Z" fill="#E5E5E5"/>
</svg>
